<svg xmlns="http://www.w3.org/2000/svg" id="master-artboard" viewBox="0 0 1400 980" width="1400px" height="980px" style="shape-rendering:geometricPrecision; text-rendering:geometricPrecision; image-rendering:optimizeQuality; fill-rule:evenodd; clip-rule:evenodd"><defs><clipPath clipPathUnits="userSpaceOnUse" id="clipPath42"><path d="M 0,1080 H 1880 V 0 H 0 Z" id="path40"/></clipPath></defs><g transform="matrix(1.09265410900116, 0, 0, 1.09265410900116, -662.391260836964, -327.95471361885444)"><metadata/><g id="g10" transform="matrix(1.3333333,0,0,-1.3333333,0,1440)"><g id="g12" transform="translate(672.5557,579.2495)"><path d="m 0,0 -82.407,-188.686 h -91.188 l 69.819,155.295 z" style="fill:#fcb813;fill-opacity:1;fill-rule:nonzero;stroke:none" id="path14"/></g><g id="g16" transform="translate(816.1948,673.9648)"><path d="m 0,0 -104.165,-33.382 -111.236,-250.019 h 87.769" style="fill:#f16a21;fill-opacity:1;fill-rule:nonzero;stroke:none" id="path18"/></g><g id="g20" transform="translate(955.208,678.6528)"><path d="m 0,0 -34.038,12.586 -134.277,-300.675 h -87.808 l 55.141,122.647 92.467,205.547 -35.738,13.199 106.517,47.078 z" style="fill:#b02824;fill-opacity:1;fill-rule:nonzero;stroke:none" id="path22"/></g><g id="g24" transform="translate(580.0977,363.9121)"><path d="m 0,0 -32.326,-75.008 h -94.419 L -92.149,0 Z" style="fill:#fcb813;fill-opacity:1;fill-rule:nonzero;stroke:none" id="path26"/></g><g id="g28" transform="translate(1406.6816,363.9121)"><path d="M 0,0 V -75.008 H -858.91 L -826.584,0 Z" style="fill:#b02824;fill-opacity:1;fill-rule:nonzero;stroke:none" id="path30"/></g><path d="M 23.780000686645508 -32.2400016784668 L 23.780000686645508 -28.690000534057617 L 8.300000190734863 -28.690000534057617 L 8.300000190734863 -17.40999984741211 L 21.530000686645508 -17.40999984741211 L 21.530000686645508 -13.859999656677246 L 8.300000190734863 -13.859999656677246 L 8.300000190734863 0 L 3.9200000762939453 0 L 3.9200000762939453 -32.2400016784668 L 23.780000686645508 -32.2400016784668 ZM 37.52562713623047 -23.149999618530273 C 39.192291259765625 -23.149999618530273 40.69562530517578 -22.873332977294922 42.03562545776367 -22.31999969482422 C 43.382293701171875 -21.766666412353516 44.52229309082031 -20.979999542236328 45.45562744140625 -19.959999084472656 C 46.39562225341797 -18.940000534057617 47.115623474121094 -17.706666946411133 47.615623474121094 -16.260000228881836 C 48.122291564941406 -14.806666374206543 48.37562561035156 -13.1899995803833 48.37562561035156 -11.40999984741211 C 48.37562561035156 -9.609999656677246 48.122291564941406 -7.989999771118164 47.615623474121094 -6.550000190734863 C 47.115623474121094 -5.110000133514404 46.39562225341797 -3.880000114440918 45.45562744140625 -2.859999895095825 C 44.52229309082031 -1.840000033378601 43.382293701171875 -1.056666612625122 42.03562545776367 -0.5099999904632568 C 40.69562530517578 0.04333333298563957 39.192291259765625 0.3199999928474426 37.52562713623047 0.3199999928474426 C 35.85895919799805 0.3199999928474426 34.35562515258789 0.04333333298563957 33.015625 -0.5099999904632568 C 31.66895866394043 -1.056666612625122 30.525625228881836 -1.840000033378601 29.58562469482422 -2.859999895095825 C 28.638957977294922 -3.880000114440918 27.908958435058594 -5.110000133514404 27.395626068115234 -6.550000190734863 C 26.888957977294922 -7.989999771118164 26.6356258392334 -9.609999656677246 26.6356258392334 -11.40999984741211 C 26.6356258392334 -13.1899995803833 26.888957977294922 -14.806666374206543 27.395626068115234 -16.260000228881836 C 27.908958435058594 -17.706666946411133 28.638957977294922 -18.940000534057617 29.58562469482422 -19.959999084472656 C 30.525625228881836 -20.979999542236328 31.66895866394043 -21.766666412353516 33.015625 -22.31999969482422 C 34.35562515258789 -22.873332977294922 35.85895919799805 -23.149999618530273 37.52562713623047 -23.149999618530273 M 37.52562713623047 -2.809999942779541 C 39.77229309082031 -2.809999942779541 41.452293395996094 -3.56333327293396 42.56562423706055 -5.070000171661377 C 43.67229080200195 -6.576666831970215 44.225624084472656 -8.680000305175781 44.225624084472656 -11.380000114440918 C 44.225624084472656 -14.100000381469727 43.67229080200195 -16.21666717529297 42.56562423706055 -17.729999542236328 C 41.452293395996094 -19.24333381652832 39.77229309082031 -20 37.52562713623047 -20 C 36.385623931884766 -20 35.395626068115234 -19.80666732788086 34.555625915527344 -19.420000076293945 C 33.71562576293945 -19.02666664123535 33.015625 -18.463333129882812 32.455623626708984 -17.729999542236328 C 31.888957977294922 -16.996665954589844 31.468957901000977 -16.093334197998047 31.19562530517578 -15.020000457763672 C 30.915624618530273 -13.946666717529297 30.775625228881836 -12.733333587646484 30.775625228881836 -11.380000114440918 C 30.775625228881836 -10.033333778381348 30.915624618530273 -8.826666831970215 31.19562530517578 -7.760000228881836 C 31.468957901000977 -6.699999809265137 31.888957977294922 -5.803333282470703 32.455623626708984 -5.070000171661377 C 33.015625 -4.3433332443237305 33.71562576293945 -3.7866666316986084 34.555625915527344 -3.4000000953674316 C 35.395626068115234 -3.006666660308838 36.385623931884766 -2.809999942779541 37.52562713623047 -2.809999942779541 ZM 50.795623779296875 0 L 50.795623779296875 -22.790000915527344 L 53.09562683105469 -22.790000915527344 C 53.52895736694336 -22.790000915527344 53.828956604003906 -22.706666946411133 53.99562454223633 -22.540000915527344 C 54.16229248046875 -22.3799991607666 54.27562713623047 -22.09666633605957 54.33562469482422 -21.690000534057617 L 54.60562515258789 -18.1299991607666 C 55.385623931884766 -19.72333335876465 56.34895706176758 -20.96666717529297 57.49562454223633 -21.860000610351562 C 58.64229202270508 -22.753334045410156 59.98896026611328 -23.200000762939453 61.53562545776367 -23.200000762939453 C 62.16229248046875 -23.200000762939453 62.73229217529297 -23.126667022705078 63.24562454223633 -22.979999542236328 C 63.752288818359375 -22.84000015258789 64.2222900390625 -22.643333435058594 64.65562438964844 -22.389999389648438 L 64.14562225341797 -19.389999389648438 C 64.03895568847656 -19.016666412353516 63.805625915527344 -18.829999923706055 63.44562530517578 -18.829999923706055 C 63.23896026611328 -18.829999923706055 62.915626525878906 -18.90333366394043 62.475624084472656 -19.049999237060547 C 62.04228973388672 -19.190000534057617 61.43562316894531 -19.260000228881836 60.65562438964844 -19.260000228881836 C 59.262290954589844 -19.260000228881836 58.09562683105469 -18.85333251953125 57.15562438964844 -18.040000915527344 C 56.21562576293945 -17.233333587646484 55.43229293823242 -16.05666732788086 54.805625915527344 -14.510000228881836 L 54.805625915527344 0 L 50.795623779296875 0 ZM 65.77999877929688 0 L 65.77999877929688 -22.790000915527344 L 68.16999816894531 -22.790000915527344 C 68.73666381835938 -22.790000915527344 69.09666442871094 -22.513334274291992 69.25 -21.959999084472656 L 69.54000091552734 -19.6200008392334 C 70.37999725341797 -20.65333366394043 71.32333374023438 -21.5 72.37000274658203 -22.15999984741211 C 73.41000366210938 -22.81999969482422 74.62000274658203 -23.149999618530273 76 -23.149999618530273 C 77.54666900634766 -23.149999618530273 78.79666900634766 -22.72333335876465 79.75 -21.8700008392334 C 80.70333099365234 -21.016666412353516 81.38666534423828 -19.860000610351562 81.80000305175781 -18.399999618530273 C 82.12000274658203 -19.226667404174805 82.53666687011719 -19.940000534057617 83.05000305175781 -20.540000915527344 C 83.56999969482422 -21.139999389648438 84.15333557128906 -21.636667251586914 84.80000305175781 -22.030000686645508 C 85.44667053222656 -22.41666603088379 86.13333129882812 -22.700000762939453 86.86000061035156 -22.8799991607666 C 87.586669921875 -23.059999465942383 88.32333374023438 -23.149999618530273 89.06999969482422 -23.149999618530273 C 90.27000427246094 -23.149999618530273 91.33999633789062 -22.959999084472656 92.27999877929688 -22.579999923706055 C 93.21333312988281 -22.19333267211914 94.00666809082031 -21.633333206176758 94.66000366210938 -20.899999618530273 C 95.3133316040039 -20.16666603088379 95.8133316040039 -19.263334274291992 96.16000366210938 -18.190000534057617 C 96.50666809082031 -17.116666793823242 96.68000030517578 -15.890000343322754 96.68000030517578 -14.510000228881836 L 96.68000030517578 0 L 92.66999816894531 0 L 92.66999816894531 -14.510000228881836 C 92.66999816894531 -16.296667098999023 92.27999877929688 -17.649999618530273 91.5 -18.56999969482422 C 90.72000122070312 -19.496665954589844 89.58999633789062 -19.959999084472656 88.11000061035156 -19.959999084472656 C 87.44332885742188 -19.959999084472656 86.81666564941406 -19.843334197998047 86.22999572753906 -19.610000610351562 C 85.63666534423828 -19.376667022705078 85.11333465576172 -19.036666870117188 84.66000366210938 -18.59000015258789 C 84.21333312988281 -18.136667251586914 83.8566665649414 -17.56999969482422 83.58999633789062 -16.889999389648438 C 83.33000183105469 -16.203332901000977 83.19999694824219 -15.40999984741211 83.19999694824219 -14.510000228881836 L 83.19999694824219 0 L 79.19999694824219 0 L 79.19999694824219 -14.510000228881836 C 79.19999694824219 -16.343334197998047 78.83000183105469 -17.709999084472656 78.08999633789062 -18.610000610351562 C 77.3566665649414 -19.510000228881836 76.28666687011719 -19.959999084472656 74.87999725341797 -19.959999084472656 C 73.88666534423828 -19.959999084472656 72.96666717529297 -19.69333267211914 72.12000274658203 -19.15999984741211 C 71.27333068847656 -18.626667022705078 70.49666595458984 -17.90333366394043 69.79000091552734 -16.989999771118164 L 69.79000091552734 0 L 65.77999877929688 0 ZM 109.80999755859375 -23.149999618530273 C 111.16999816894531 -23.149999618530273 112.43000030517578 -22.9233341217041 113.58999633789062 -22.469999313354492 C 114.74333190917969 -22.010000228881836 115.73999786376953 -21.350000381469727 116.58000183105469 -20.489999771118164 C 117.41999816894531 -19.623332977294922 118.07666778564453 -18.55666732788086 118.55000305175781 -17.290000915527344 C 119.02333068847656 -16.023332595825195 119.26000213623047 -14.579999923706055 119.26000213623047 -12.960000038146973 C 119.26000213623047 -12.326666831970215 119.19000244140625 -11.90666675567627 119.05000305175781 -11.699999809265137 C 118.91666412353516 -11.486666679382324 118.663330078125 -11.380000114440918 118.29000091552734 -11.380000114440918 L 103.12999725341797 -11.380000114440918 C 103.15666961669922 -9.9399995803833 103.3499984741211 -8.6899995803833 103.70999908447266 -7.630000114440918 C 104.06999969482422 -6.563333511352539 104.5633316040039 -5.673333168029785 105.19000244140625 -4.960000038146973 C 105.82333374023438 -4.246666431427002 106.57666778564453 -3.7133333683013916 107.44999694824219 -3.359999895095825 C 108.31666564941406 -3.006666660308838 109.29000091552734 -2.8299999237060547 110.37000274658203 -2.8299999237060547 C 111.37666320800781 -2.8299999237060547 112.24333190917969 -2.946666717529297 112.97000122070312 -3.180000066757202 C 113.69667053222656 -3.4133334159851074 114.32333374023438 -3.6666667461395264 114.8499984741211 -3.940000057220459 C 115.37000274658203 -4.206666469573975 115.80667114257812 -4.456666469573975 116.16000366210938 -4.690000057220459 C 116.51333618164062 -4.923333168029785 116.81666564941406 -5.039999961853027 117.06999969482422 -5.039999961853027 C 117.40333557128906 -5.039999961853027 117.66000366210938 -4.913333415985107 117.83999633789062 -4.659999847412109 L 118.95999908447266 -3.190000057220459 C 118.46666717529297 -2.5899999141693115 117.87666320800781 -2.069999933242798 117.19000244140625 -1.6299999952316284 C 116.49666595458984 -1.190000057220459 115.75666809082031 -0.8266666531562805 114.97000122070312 -0.5400000214576721 C 114.18333435058594 -0.25333333015441895 113.37000274658203 -0.03999999910593033 112.52999877929688 0.10000000149011612 C 111.69000244140625 0.24666666984558105 110.8566665649414 0.3199999928474426 110.02999877929688 0.3199999928474426 C 108.4566650390625 0.3199999928474426 107.00666809082031 0.0533333346247673 105.68000030517578 -0.47999998927116394 C 104.35333251953125 -1.0133333206176758 103.2066650390625 -1.7933332920074463 102.23999786376953 -2.819999933242798 C 101.26667022705078 -3.8533332347869873 100.51333618164062 -5.12666654586792 99.9800033569336 -6.639999866485596 C 99.44000244140625 -8.15333366394043 99.16999816894531 -9.893333435058594 99.16999816894531 -11.859999656677246 C 99.16999816894531 -13.446666717529297 99.413330078125 -14.930000305175781 99.9000015258789 -16.309999465942383 C 100.38666534423828 -17.690000534057617 101.086669921875 -18.886667251586914 102 -19.899999618530273 C 102.913330078125 -20.913333892822266 104.02999877929688 -21.709999084472656 105.3499984741211 -22.290000915527344 C 106.66999816894531 -22.863332748413086 108.15666961669922 -23.149999618530273 109.80999755859375 -23.149999618530273 M 109.9000015258789 -20.200000762939453 C 107.95999908447266 -20.200000762939453 106.4366683959961 -19.643333435058594 105.33000183105469 -18.530000686645508 C 104.22333526611328 -17.40999984741211 103.53333282470703 -15.859999656677246 103.26000213623047 -13.880000114440918 L 115.66000366210938 -13.880000114440918 C 115.66000366210938 -14.813333511352539 115.52999877929688 -15.666666984558105 115.27000427246094 -16.440000534057617 C 115.01666259765625 -17.206666946411133 114.6433334350586 -17.873332977294922 114.1500015258789 -18.440000534057617 C 113.65666198730469 -19 113.05332946777344 -19.433332443237305 112.33999633789062 -19.739999771118164 C 111.62666320800781 -20.046667098999023 110.8133316040039 -20.200000762939453 109.9000015258789 -20.200000762939453 ZM 120.76437377929688 0 L 120.76437377929688 -22.790000915527344 L 123.06437683105469 -22.790000915527344 C 123.49771118164062 -22.790000915527344 123.7977066040039 -22.706666946411133 123.9643783569336 -22.540000915527344 C 124.13104248046875 -22.3799991607666 124.24437713623047 -22.09666633605957 124.30437469482422 -21.690000534057617 L 124.57437133789062 -18.1299991607666 C 125.35437774658203 -19.72333335876465 126.31771087646484 -20.96666717529297 127.46437072753906 -21.860000610351562 C 128.6110382080078 -22.753334045410156 129.95770263671875 -23.200000762939453 131.50437927246094 -23.200000762939453 C 132.13104248046875 -23.200000762939453 132.70103454589844 -23.126667022705078 133.21437072753906 -22.979999542236328 C 133.72103881835938 -22.84000015258789 134.1910400390625 -22.643333435058594 134.62437438964844 -22.389999389648438 L 134.1143798828125 -19.389999389648438 C 134.00770568847656 -19.016666412353516 133.77438354492188 -18.829999923706055 133.41436767578125 -18.829999923706055 C 133.20770263671875 -18.829999923706055 132.88436889648438 -18.90333366394043 132.4443817138672 -19.049999237060547 C 132.01104736328125 -19.190000534057617 131.4043731689453 -19.260000228881836 130.62437438964844 -19.260000228881836 C 129.23104858398438 -19.260000228881836 128.0643768310547 -18.85333251953125 127.12437438964844 -18.040000915527344 C 126.18437194824219 -17.233333587646484 125.40103912353516 -16.05666732788086 124.77437591552734 -14.510000228881836 L 124.77437591552734 0 L 120.76437377929688 0 ZM 140.20875549316406 -33.13999938964844 L 140.20875549316406 0 L 136.19874572753906 0 L 136.19874572753906 -33.13999938964844 L 140.20875549316406 -33.13999938964844 ZM 154.93875122070312 6.730000019073486 C 154.7987518310547 7.03000020980835 154.62875366210938 7.269999980926514 154.4287567138672 7.449999809265137 C 154.22874450683594 7.630000114440918 153.9187469482422 7.71999979019165 153.49874877929688 7.71999979019165 L 150.52874755859375 7.71999979019165 L 154.68875122070312 -1.3300000429153442 L 145.28875732421875 -22.790000915527344 L 148.74874877929688 -22.790000915527344 C 149.0954132080078 -22.790000915527344 149.36541748046875 -22.703332901000977 149.55874633789062 -22.530000686645508 C 149.75209045410156 -22.356666564941406 149.89541625976562 -22.16666603088379 149.98875427246094 -21.959999084472656 L 156.0887451171875 -7.599999904632568 C 156.22207641601562 -7.273333549499512 156.33541870117188 -6.943333148956299 156.4287567138672 -6.610000133514404 C 156.52874755859375 -6.2833333015441895 156.61541748046875 -5.946666717529297 156.68875122070312 -5.599999904632568 C 156.79541015625 -5.946666717529297 156.90208435058594 -6.2833333015441895 157.0087432861328 -6.610000133514404 C 157.11541748046875 -6.943333148956299 157.23541259765625 -7.2833333015441895 157.36874389648438 -7.630000114440918 L 163.27874755859375 -21.959999084472656 C 163.37208557128906 -22.200000762939453 163.52874755859375 -22.399999618530273 163.74874877929688 -22.559999465942383 C 163.9620819091797 -22.713333129882812 164.19541931152344 -22.790000915527344 164.44874572753906 -22.790000915527344 L 167.64874267578125 -22.790000915527344 L 154.93875122070312 6.730000019073486 ZM 186.1687469482422 -33.13999938964844 L 186.1687469482422 -13.630000114440918 L 187.19874572753906 -13.630000114440918 C 187.49874877929688 -13.630000114440918 187.74542236328125 -13.673333168029785 187.93875122070312 -13.760000228881836 C 188.1387481689453 -13.84000015258789 188.35874938964844 -14.006667137145996 188.5987548828125 -14.260000228881836 L 195.7987518310547 -21.979999542236328 C 196.0187530517578 -22.219999313354492 196.24208068847656 -22.41666603088379 196.46875 -22.56999969482422 C 196.69541931152344 -22.71666717529297 196.99542236328125 -22.790000915527344 197.36874389648438 -22.790000915527344 L 201.0187530517578 -22.790000915527344 L 192.61874389648438 -13.859999656677246 C 192.41207885742188 -13.606666564941406 192.20875549316406 -13.380000114440918 192.0087432861328 -13.180000305175781 C 191.8020782470703 -12.986666679382324 191.57208251953125 -12.816666603088379 191.31875610351562 -12.670000076293945 C 191.58541870117188 -12.489999771118164 191.82875061035156 -12.283333778381348 192.0487518310547 -12.050000190734863 C 192.2687530517578 -11.816666603088379 192.4754180908203 -11.550000190734863 192.6687469482422 -11.25 L 201.57875061035156 0 L 197.97874450683594 0 C 197.65208435058594 0 197.37208557128906 -0.06333333253860474 197.1387481689453 -0.1899999976158142 C 196.90541076660156 -0.3166666626930237 196.6820831298828 -0.5166666507720947 196.46875 -0.7900000214576721 L 188.97874450683594 -10.130000114440918 C 188.75209045410156 -10.443333625793457 188.52542114257812 -10.646666526794434 188.2987518310547 -10.739999771118164 C 188.07875061035156 -10.84000015258789 187.74208068847656 -10.890000343322754 187.28875732421875 -10.890000343322754 L 186.1687469482422 -10.890000343322754 L 186.1687469482422 0 L 182.1387481689453 0 L 182.1387481689453 -33.13999938964844 L 186.1687469482422 -33.13999938964844 ZM 204.49874877929688 0 L 204.49874877929688 -22.790000915527344 L 206.8887481689453 -22.790000915527344 C 207.45541381835938 -22.790000915527344 207.81541442871094 -22.513334274291992 207.96875 -21.959999084472656 L 208.27874755859375 -19.479999542236328 C 209.27207946777344 -20.579999923706055 210.37875366210938 -21.46666717529297 211.5987548828125 -22.139999389648438 C 212.82540893554688 -22.81333351135254 214.24208068847656 -23.149999618530273 215.8487548828125 -23.149999618530273 C 217.0887451171875 -23.149999618530273 218.1854248046875 -22.94333267211914 219.1387481689453 -22.530000686645508 C 220.0920867919922 -22.116666793823242 220.8887481689453 -21.53333282470703 221.52874755859375 -20.780000686645508 C 222.16207885742188 -20.020000457763672 222.64541625976562 -19.106666564941406 222.97874450683594 -18.040000915527344 C 223.305419921875 -16.979999542236328 223.46875 -15.803333282470703 223.46875 -14.510000228881836 L 223.46875 0 L 219.46875 0 L 219.46875 -14.510000228881836 C 219.46875 -16.236665725708008 219.07540893554688 -17.5766658782959 218.28875732421875 -18.530000686645508 C 217.49542236328125 -19.483333587646484 216.29208374023438 -19.959999084472656 214.6787567138672 -19.959999084472656 C 213.49208068847656 -19.959999084472656 212.3854217529297 -19.6733341217041 211.35874938964844 -19.100000381469727 C 210.32540893554688 -18.53333282470703 209.3754119873047 -17.763334274291992 208.5087432861328 -16.790000915527344 L 208.5087432861328 0 L 204.49874877929688 0 ZM 236.22874450683594 -23.149999618530273 C 237.89541625976562 -23.149999618530273 239.39874267578125 -22.873332977294922 240.73875427246094 -22.31999969482422 C 242.08541870117188 -21.766666412353516 243.2254180908203 -20.979999542236328 244.15875244140625 -19.959999084472656 C 245.0987548828125 -18.940000534057617 245.81875610351562 -17.706666946411133 246.31875610351562 -16.260000228881836 C 246.82540893554688 -14.806666374206543 247.07875061035156 -13.1899995803833 247.07875061035156 -11.40999984741211 C 247.07875061035156 -9.609999656677246 246.82540893554688 -7.989999771118164 246.31875610351562 -6.550000190734863 C 245.81875610351562 -5.110000133514404 245.0987548828125 -3.880000114440918 244.15875244140625 -2.859999895095825 C 243.2254180908203 -1.840000033378601 242.08541870117188 -1.056666612625122 240.73875427246094 -0.5099999904632568 C 239.39874267578125 0.04333333298563957 237.89541625976562 0.3199999928474426 236.22874450683594 0.3199999928474426 C 234.5620880126953 0.3199999928474426 233.05874633789062 0.04333333298563957 231.71875 -0.5099999904632568 C 230.37208557128906 -1.056666612625122 229.22874450683594 -1.840000033378601 228.28875732421875 -2.859999895095825 C 227.3420867919922 -3.880000114440918 226.61209106445312 -5.110000133514404 226.0987548828125 -6.550000190734863 C 225.5920867919922 -7.989999771118164 225.3387451171875 -9.609999656677246 225.3387451171875 -11.40999984741211 C 225.3387451171875 -13.1899995803833 225.5920867919922 -14.806666374206543 226.0987548828125 -16.260000228881836 C 226.61209106445312 -17.706666946411133 227.3420867919922 -18.940000534057617 228.28875732421875 -19.959999084472656 C 229.22874450683594 -20.979999542236328 230.37208557128906 -21.766666412353516 231.71875 -22.31999969482422 C 233.05874633789062 -22.873332977294922 234.5620880126953 -23.149999618530273 236.22874450683594 -23.149999618530273 M 236.22874450683594 -2.809999942779541 C 238.4754180908203 -2.809999942779541 240.15541076660156 -3.56333327293396 241.2687530517578 -5.070000171661377 C 242.3754119873047 -6.576666831970215 242.92874145507812 -8.680000305175781 242.92874145507812 -11.380000114440918 C 242.92874145507812 -14.100000381469727 242.3754119873047 -16.21666717529297 241.2687530517578 -17.729999542236328 C 240.15541076660156 -19.24333381652832 238.4754180908203 -20 236.22874450683594 -20 C 235.0887451171875 -20 234.0987548828125 -19.80666732788086 233.2587432861328 -19.420000076293945 C 232.4187469482422 -19.02666664123535 231.71875 -18.463333129882812 231.15875244140625 -17.729999542236328 C 230.5920867919922 -16.996665954589844 230.17208862304688 -16.093334197998047 229.89874267578125 -15.020000457763672 C 229.61874389648438 -13.946666717529297 229.47874450683594 -12.733333587646484 229.47874450683594 -11.380000114440918 C 229.47874450683594 -10.033333778381348 229.61874389648438 -8.826666831970215 229.89874267578125 -7.760000228881836 C 230.17208862304688 -6.699999809265137 230.5920867919922 -5.803333282470703 231.15875244140625 -5.070000171661377 C 231.71875 -4.3433332443237305 232.4187469482422 -3.7866666316986084 233.2587432861328 -3.4000000953674316 C 234.0987548828125 -3.006666660308838 235.0887451171875 -2.809999942779541 236.22874450683594 -2.809999942779541 ZM 246.53875732421875 -22.790000915527344 L 249.6787567138672 -22.790000915527344 C 250.0120849609375 -22.790000915527344 250.28208923339844 -22.706666946411133 250.48875427246094 -22.540000915527344 C 250.70208740234375 -22.3799991607666 250.8454132080078 -22.18666648864746 250.9187469482422 -21.959999084472656 L 255.28875732421875 -7.289999961853027 C 255.40875244140625 -6.75 255.5187530517578 -6.230000019073486 255.61874389648438 -5.730000019073486 C 255.7254180908203 -5.223333358764648 255.81541442871094 -4.7166666984558105 255.8887481689453 -4.210000038146973 C 256.0154113769531 -4.7166666984558105 256.1520690917969 -5.223333358764648 256.2987365722656 -5.730000019073486 C 256.4454040527344 -6.230000019073486 256.6020812988281 -6.75 256.76873779296875 -7.289999961853027 L 261.5887451171875 -22.049999237060547 C 261.6620788574219 -22.27666664123535 261.7920837402344 -22.463333129882812 261.978759765625 -22.610000610351562 C 262.1654052734375 -22.763334274291992 262.4020690917969 -22.84000015258789 262.6887512207031 -22.84000015258789 L 264.41876220703125 -22.84000015258789 C 264.71875 -22.84000015258789 264.96875 -22.763334274291992 265.16876220703125 -22.610000610351562 C 265.3620910644531 -22.463333129882812 265.49542236328125 -22.27666664123535 265.5687561035156 -22.049999237060547 L 270.26873779296875 -7.289999961853027 C 270.4354248046875 -6.763333320617676 270.58209228515625 -6.246666431427002 270.708740234375 -5.739999771118164 C 270.8354187011719 -5.226666450500488 270.958740234375 -4.723333358764648 271.0787353515625 -4.230000019073486 C 271.1520690917969 -4.723333358764648 271.2487487792969 -5.239999771118164 271.3687438964844 -5.78000020980835 C 271.4887390136719 -6.320000171661377 271.6187438964844 -6.823333263397217 271.7587585449219 -7.289999961853027 L 276.208740234375 -21.959999084472656 C 276.28875732421875 -22.200000762939453 276.43206787109375 -22.399999618530273 276.6387634277344 -22.559999465942383 C 276.8454284667969 -22.713333129882812 277.0920715332031 -22.790000915527344 277.3787536621094 -22.790000915527344 L 280.39874267578125 -22.790000915527344 L 273.01873779296875 0 L 269.8487548828125 0 C 269.4554138183594 0 269.18206787109375 -0.2566666603088379 269.02874755859375 -0.7699999809265137 L 263.9887390136719 -16.219999313354492 C 263.8687438964844 -16.566667556762695 263.7720947265625 -16.91666603088379 263.6987609863281 -17.270000457763672 C 263.62542724609375 -17.623332977294922 263.5520935058594 -17.969999313354492 263.478759765625 -18.309999465942383 C 263.39874267578125 -17.969999313354492 263.32208251953125 -17.6200008392334 263.2487487792969 -17.260000228881836 C 263.1754150390625 -16.899999618530273 263.0787353515625 -16.546667098999023 262.958740234375 -16.200000762939453 L 257.8487548828125 -0.7699999809265137 C 257.68206787109375 -0.2566666603088379 257.37542724609375 0 256.9287414550781 0 L 253.90875244140625 0 L 246.53875732421875 -22.790000915527344 ZM 281.9987487792969 0 L 281.9987487792969 -22.790000915527344 L 284.3887634277344 -22.790000915527344 C 284.9554138183594 -22.790000915527344 285.3154296875 -22.513334274291992 285.46875 -21.959999084472656 L 285.77874755859375 -19.479999542236328 C 286.7720947265625 -20.579999923706055 287.8787536621094 -21.46666717529297 289.0987548828125 -22.139999389648438 C 290.3254089355469 -22.81333351135254 291.7420959472656 -23.149999618530273 293.3487548828125 -23.149999618530273 C 294.5887451171875 -23.149999618530273 295.6854248046875 -22.94333267211914 296.6387634277344 -22.530000686645508 C 297.5920715332031 -22.116666793823242 298.3887634277344 -21.53333282470703 299.02874755859375 -20.780000686645508 C 299.6620788574219 -20.020000457763672 300.1454162597656 -19.106666564941406 300.478759765625 -18.040000915527344 C 300.805419921875 -16.979999542236328 300.96875 -15.803333282470703 300.96875 -14.510000228881836 L 300.96875 0 L 296.96875 0 L 296.96875 -14.510000228881836 C 296.96875 -16.236665725708008 296.5754089355469 -17.5766658782959 295.78875732421875 -18.530000686645508 C 294.99542236328125 -19.483333587646484 293.7920837402344 -19.959999084472656 292.1787414550781 -19.959999084472656 C 290.9920959472656 -19.959999084472656 289.8854064941406 -19.6733341217041 288.8587646484375 -19.100000381469727 C 287.8254089355469 -18.53333282470703 286.87542724609375 -17.763334274291992 286.0087585449219 -16.790000915527344 L 286.0087585449219 0 L 281.9987487792969 0 ZM 332.4887390136719 0 L 330.71875 0 C 330.3254089355469 0 330.0087585449219 -0.05999999865889549 329.76873779296875 -0.18000000715255737 C 329.52874755859375 -0.30000001192092896 329.3720703125 -0.5533333420753479 329.2987365722656 -0.9399999976158142 L 328.8487548828125 -3.059999942779541 C 328.2487487792969 -2.5199999809265137 327.6654052734375 -2.0366666316986084 327.0987548828125 -1.6100000143051147 C 326.5254211425781 -1.1833332777023315 325.9220886230469 -0.8233333230018616 325.28875732421875 -0.5299999713897705 C 324.6620788574219 -0.23666666448116302 323.9920959472656 -0.013333333656191826 323.27874755859375 0.14000000059604645 C 322.5654296875 0.2866666615009308 321.7754211425781 0.36000001430511475 320.90875244140625 0.36000001430511475 C 320.0220947265625 0.36000001430511475 319.19207763671875 0.23666666448116302 318.41876220703125 -0.009999999776482582 C 317.6454162597656 -0.2566666603088379 316.97540283203125 -0.6299999952316284 316.40875244140625 -1.1299999952316284 C 315.8354187011719 -1.6233333349227905 315.382080078125 -2.246666669845581 315.0487365722656 -3 C 314.708740234375 -3.759999990463257 314.53875732421875 -4.6566667556762695 314.53875732421875 -5.690000057220459 C 314.53875732421875 -6.590000152587891 314.7854309082031 -7.456666469573975 315.27874755859375 -8.289999961853027 C 315.7720947265625 -9.123332977294922 316.57208251953125 -9.863333702087402 317.6787414550781 -10.510000228881836 C 318.77874755859375 -11.149999618530273 320.2220764160156 -11.676666259765625 322.0087585449219 -12.09000015258789 C 323.79541015625 -12.50333309173584 325.978759765625 -12.739999771118164 328.5587463378906 -12.800000190734863 L 328.5587463378906 -14.579999923706055 C 328.5587463378906 -16.34666633605957 328.1787414550781 -17.68666648864746 327.41876220703125 -18.600000381469727 C 326.65875244140625 -19.50666618347168 325.53875732421875 -19.959999084472656 324.0587463378906 -19.959999084472656 C 323.0854187011719 -19.959999084472656 322.2620849609375 -19.836666107177734 321.5887451171875 -19.59000015258789 C 320.9220886230469 -19.336666107177734 320.3454284667969 -19.05666732788086 319.8587646484375 -18.75 C 319.3720703125 -18.44333267211914 318.95208740234375 -18.16666603088379 318.5987548828125 -17.920000076293945 C 318.24542236328125 -17.6733341217041 317.8954162597656 -17.549999237060547 317.5487365722656 -17.549999237060547 C 317.2820739746094 -17.549999237060547 317.0487365722656 -17.6200008392334 316.8487548828125 -17.760000228881836 C 316.64208984375 -17.906665802001953 316.478759765625 -18.08333396911621 316.3587646484375 -18.290000915527344 L 315.6387634277344 -19.56999969482422 C 316.89874267578125 -20.790000915527344 318.2587585449219 -21.700000762939453 319.71875 -22.299999237060547 C 321.1720886230469 -22.899999618530273 322.7820739746094 -23.200000762939453 324.5487365722656 -23.200000762939453 C 325.82208251953125 -23.200000762939453 326.9554138183594 -22.989999771118164 327.9487609863281 -22.56999969482422 C 328.9354248046875 -22.149999618530273 329.76873779296875 -21.56333351135254 330.4487609863281 -20.809999465942383 C 331.1220703125 -20.06333351135254 331.632080078125 -19.156665802001953 331.978759765625 -18.09000015258789 C 332.3187561035156 -17.023332595825195 332.4887390136719 -15.853333473205566 332.4887390136719 -14.579999923706055 L 332.4887390136719 0 M 322.0987548828125 -2.450000047683716 C 322.805419921875 -2.450000047683716 323.4487609863281 -2.5233333110809326 324.02874755859375 -2.6700000762939453 C 324.61541748046875 -2.809999942779541 325.16876220703125 -3.009999990463257 325.6887512207031 -3.2699999809265137 C 326.20208740234375 -3.5366666316986084 326.6954040527344 -3.8566665649414062 327.16876220703125 -4.230000019073486 C 327.64208984375 -4.603333473205566 328.10540771484375 -5.03000020980835 328.5587463378906 -5.510000228881836 L 328.5587463378906 -10.260000228881836 C 326.71209716796875 -10.199999809265137 325.14208984375 -10.053333282470703 323.8487548828125 -9.819999694824219 C 322.56207275390625 -9.58666706085205 321.5120849609375 -9.283333778381348 320.6987609863281 -8.90999984741211 C 319.89208984375 -8.536666870117188 319.305419921875 -8.09333324432373 318.9387512207031 -7.579999923706055 C 318.57208251953125 -7.073333263397217 318.3887634277344 -6.503333568572998 318.3887634277344 -5.869999885559082 C 318.3887634277344 -5.269999980926514 318.48541259765625 -4.753333568572998 318.6787414550781 -4.320000171661377 C 318.8720703125 -3.886666774749756 319.1354064941406 -3.5299999713897705 319.46875 -3.25 C 319.79541015625 -2.9700000286102295 320.1854248046875 -2.7666666507720947 320.6387634277344 -2.640000104904175 C 321.0854187011719 -2.513333320617676 321.57208251953125 -2.450000047683716 322.0987548828125 -2.450000047683716 ZM 348.7774963378906 -19.040000915527344 C 348.5908203125 -18.706666946411133 348.3108215332031 -18.540000915527344 347.9375 -18.540000915527344 C 347.7108459472656 -18.540000915527344 347.4574890136719 -18.623332977294922 347.177490234375 -18.790000915527344 C 346.8908386230469 -18.956666946411133 346.54083251953125 -19.139999389648438 346.12750244140625 -19.34000015258789 C 345.71417236328125 -19.540000915527344 345.22418212890625 -19.726667404174805 344.6575012207031 -19.899999618530273 C 344.08416748046875 -20.073333740234375 343.4075012207031 -20.15999984741211 342.62750244140625 -20.15999984741211 C 341.95416259765625 -20.15999984741211 341.3475036621094 -20.073333740234375 340.8074951171875 -19.899999618530273 C 340.2674865722656 -19.726667404174805 339.8074951171875 -19.489999771118164 339.427490234375 -19.190000534057617 C 339.04083251953125 -18.889999389648438 338.74749755859375 -18.543333053588867 338.5474853515625 -18.149999618530273 C 338.3408203125 -17.75 338.23748779296875 -17.316667556762695 338.23748779296875 -16.850000381469727 C 338.23748779296875 -16.263334274291992 338.4075012207031 -15.776666641235352 338.74749755859375 -15.390000343322754 C 339.0874938964844 -14.99666690826416 339.5341796875 -14.65999984741211 340.0874938964844 -14.380000114440918 C 340.6408386230469 -14.09333324432373 341.2708435058594 -13.84000015258789 341.9775085449219 -13.619999885559082 C 342.6841735839844 -13.40666675567627 343.4075012207031 -13.176666259765625 344.1474914550781 -12.930000305175781 C 344.88751220703125 -12.676666259765625 345.61083984375 -12.40333366394043 346.3175048828125 -12.109999656677246 C 347.024169921875 -11.803333282470703 347.6541748046875 -11.426666259765625 348.2074890136719 -10.979999542236328 C 348.7674865722656 -10.526666641235352 349.21417236328125 -9.976666450500488 349.5474853515625 -9.329999923706055 C 349.88751220703125 -8.676666259765625 350.0574951171875 -7.889999866485596 350.0574951171875 -6.96999979019165 C 350.0574951171875 -5.923333168029785 349.86749267578125 -4.953333377838135 349.48748779296875 -4.059999942779541 C 349.1141662597656 -3.1666667461395264 348.5608215332031 -2.3933334350585938 347.8275146484375 -1.7400000095367432 C 347.09417724609375 -1.09333336353302 346.19415283203125 -0.5799999833106995 345.12750244140625 -0.20000000298023224 C 344.0608215332031 0.1733333319425583 342.8308410644531 0.36000001430511475 341.4375 0.36000001430511475 C 339.84417724609375 0.36000001430511475 338.4041748046875 0.10000000149011612 337.11749267578125 -0.41999998688697815 C 335.8308410644531 -0.9333333373069763 334.73748779296875 -1.596666693687439 333.8374938964844 -2.4100000858306885 L 334.7774963378906 -3.940000057220459 C 334.8974914550781 -4.133333206176758 335.04083251953125 -4.2833333015441895 335.2074890136719 -4.389999866485596 C 335.36749267578125 -4.489999771118164 335.58416748046875 -4.539999961853027 335.8575134277344 -4.539999961853027 C 336.1241760253906 -4.539999961853027 336.4075012207031 -4.436666488647461 336.7074890136719 -4.230000019073486 C 337.00750732421875 -4.023333549499512 337.3741760253906 -3.7899999618530273 337.8074951171875 -3.5299999713897705 C 338.2341613769531 -3.2766666412353516 338.7508239746094 -3.0433332920074463 339.3575134277344 -2.8299999237060547 C 339.96417236328125 -2.623333215713501 340.72418212890625 -2.5199999809265137 341.63751220703125 -2.5199999809265137 C 342.4175109863281 -2.5199999809265137 343.100830078125 -2.619999885559082 343.6875 -2.819999933242798 C 344.274169921875 -3.0266666412353516 344.7608337402344 -3.303333282470703 345.1474914550781 -3.6500000953674316 C 345.54083251953125 -3.990000009536743 345.8308410644531 -4.386666774749756 346.0174865722656 -4.840000152587891 C 346.20416259765625 -5.2866668701171875 346.2974853515625 -5.766666889190674 346.2974853515625 -6.28000020980835 C 346.2974853515625 -6.9066667556762695 346.12750244140625 -7.426666736602783 345.7875061035156 -7.840000152587891 C 345.45416259765625 -8.25333309173584 345.00750732421875 -8.606666564941406 344.447509765625 -8.899999618530273 C 343.8941650390625 -9.193333625793457 343.2608337402344 -9.446666717529297 342.5474853515625 -9.65999984741211 C 341.83416748046875 -9.880000114440918 341.1075134277344 -10.109999656677246 340.36749267578125 -10.350000381469727 C 339.62750244140625 -10.59000015258789 338.90081787109375 -10.863333702087402 338.1875 -11.170000076293945 C 337.47418212890625 -11.476666450500488 336.8408203125 -11.863333702087402 336.2875061035156 -12.329999923706055 C 335.7275085449219 -12.796667098999023 335.28082275390625 -13.369999885559082 334.947509765625 -14.050000190734863 C 334.6075134277344 -14.729999542236328 334.4375 -15.5600004196167 334.4375 -16.540000915527344 C 334.4375 -17.406665802001953 334.61749267578125 -18.24333381652832 334.9775085449219 -19.049999237060547 C 335.3374938964844 -19.850000381469727 335.8641662597656 -20.553333282470703 336.5574951171875 -21.15999984741211 C 337.2441711425781 -21.766666412353516 338.0908203125 -22.25 339.0975036621094 -22.610000610351562 C 340.1041564941406 -22.969999313354492 341.2508239746094 -23.149999618530273 342.5375061035156 -23.149999618530273 C 344.0375061035156 -23.149999618530273 345.3841552734375 -22.913333892822266 346.5775146484375 -22.440000534057617 C 347.7708435058594 -21.96666717529297 348.80084228515625 -21.31999969482422 349.6675109863281 -20.5 L 348.7774963378906 -19.040000915527344 ZM 369.9131164550781 -12.0600004196167 L 369.9131164550781 0 L 365.5731201171875 0 L 365.5731201171875 -32.2400016784668 L 375.0831298828125 -32.2400016784668 C 377.1231384277344 -32.2400016784668 378.8964538574219 -32.003334045410156 380.40313720703125 -31.530000686645508 C 381.9097900390625 -31.05666732788086 383.1597900390625 -30.386667251586914 384.15313720703125 -29.520000457763672 C 385.1398010253906 -28.64666748046875 385.8797912597656 -27.59666633605957 386.3731384277344 -26.3700008392334 C 386.85980224609375 -25.136667251586914 387.1031188964844 -23.763334274291992 387.1031188964844 -22.25 C 387.1031188964844 -20.75 386.83978271484375 -19.376667022705078 386.3131103515625 -18.1299991607666 C 385.7864685058594 -16.889999389648438 385.0164489746094 -15.819999694824219 384.00311279296875 -14.920000076293945 C 382.9964599609375 -14.020000457763672 381.7431335449219 -13.316666603088379 380.2431335449219 -12.8100004196167 C 378.7431335449219 -12.3100004196167 377.02313232421875 -12.0600004196167 375.0831298828125 -12.0600004196167 L 369.9131164550781 -12.0600004196167 M 369.9131164550781 -15.520000457763672 L 375.0831298828125 -15.520000457763672 C 376.3298034667969 -15.520000457763672 377.4297790527344 -15.686666488647461 378.38311767578125 -16.020000457763672 C 379.3364562988281 -16.35333251953125 380.13311767578125 -16.81333351135254 380.77313232421875 -17.399999618530273 C 381.4197998046875 -17.99333381652832 381.9097900390625 -18.703332901000977 382.2431335449219 -19.530000686645508 C 382.5697937011719 -20.356666564941406 382.7331237792969 -21.263334274291992 382.7331237792969 -22.25 C 382.7331237792969 -24.303333282470703 382.09979248046875 -25.90999984741211 380.8331298828125 -27.06999969482422 C 379.56646728515625 -28.22333335876465 377.6497802734375 -28.799999237060547 375.0831298828125 -28.799999237060547 L 369.9131164550781 -28.799999237060547 L 369.9131164550781 -15.520000457763672 ZM 398.744384765625 -23.149999618530273 C 400.4110412597656 -23.149999618530273 401.91436767578125 -22.873332977294922 403.2543640136719 -22.31999969482422 C 404.6010437011719 -21.766666412353516 405.74102783203125 -20.979999542236328 406.67437744140625 -19.959999084472656 C 407.6143798828125 -18.940000534057617 408.3343811035156 -17.706666946411133 408.8343811035156 -16.260000228881836 C 409.3410339355469 -14.806666374206543 409.5943603515625 -13.1899995803833 409.5943603515625 -11.40999984741211 C 409.5943603515625 -9.609999656677246 409.3410339355469 -7.989999771118164 408.8343811035156 -6.550000190734863 C 408.3343811035156 -5.110000133514404 407.6143798828125 -3.880000114440918 406.67437744140625 -2.859999895095825 C 405.74102783203125 -1.840000033378601 404.6010437011719 -1.056666612625122 403.2543640136719 -0.5099999904632568 C 401.91436767578125 0.04333333298563957 400.4110412597656 0.3199999928474426 398.744384765625 0.3199999928474426 C 397.07769775390625 0.3199999928474426 395.5743713378906 0.04333333298563957 394.234375 -0.5099999904632568 C 392.8876953125 -1.056666612625122 391.744384765625 -1.840000033378601 390.80438232421875 -2.859999895095825 C 389.8576965332031 -3.880000114440918 389.1277160644531 -5.110000133514404 388.6143798828125 -6.550000190734863 C 388.1076965332031 -7.989999771118164 387.8543701171875 -9.609999656677246 387.8543701171875 -11.40999984741211 C 387.8543701171875 -13.1899995803833 388.1076965332031 -14.806666374206543 388.6143798828125 -16.260000228881836 C 389.1277160644531 -17.706666946411133 389.8576965332031 -18.940000534057617 390.80438232421875 -19.959999084472656 C 391.744384765625 -20.979999542236328 392.8876953125 -21.766666412353516 394.234375 -22.31999969482422 C 395.5743713378906 -22.873332977294922 397.07769775390625 -23.149999618530273 398.744384765625 -23.149999618530273 M 398.744384765625 -2.809999942779541 C 400.99102783203125 -2.809999942779541 402.6710510253906 -3.56333327293396 403.78436279296875 -5.070000171661377 C 404.89105224609375 -6.576666831970215 405.4443664550781 -8.680000305175781 405.4443664550781 -11.380000114440918 C 405.4443664550781 -14.100000381469727 404.89105224609375 -16.21666717529297 403.78436279296875 -17.729999542236328 C 402.6710510253906 -19.24333381652832 400.99102783203125 -20 398.744384765625 -20 C 397.6043701171875 -20 396.6143798828125 -19.80666732788086 395.7743835449219 -19.420000076293945 C 394.93438720703125 -19.02666664123535 394.234375 -18.463333129882812 393.67437744140625 -17.729999542236328 C 393.1076965332031 -16.996665954589844 392.6877136230469 -16.093334197998047 392.41436767578125 -15.020000457763672 C 392.1343688964844 -13.946666717529297 391.994384765625 -12.733333587646484 391.994384765625 -11.380000114440918 C 391.994384765625 -10.033333778381348 392.1343688964844 -8.826666831970215 392.41436767578125 -7.760000228881836 C 392.6877136230469 -6.699999809265137 393.1076965332031 -5.803333282470703 393.67437744140625 -5.070000171661377 C 394.234375 -4.3433332443237305 394.93438720703125 -3.7866666316986084 395.7743835449219 -3.4000000953674316 C 396.6143798828125 -3.006666660308838 397.6043701171875 -2.809999942779541 398.744384765625 -2.809999942779541 ZM 421.244384765625 -23.149999618530273 C 422.9110412597656 -23.149999618530273 424.41436767578125 -22.873332977294922 425.7543640136719 -22.31999969482422 C 427.1010437011719 -21.766666412353516 428.24102783203125 -20.979999542236328 429.17437744140625 -19.959999084472656 C 430.1143798828125 -18.940000534057617 430.8343811035156 -17.706666946411133 431.3343811035156 -16.260000228881836 C 431.8410339355469 -14.806666374206543 432.0943603515625 -13.1899995803833 432.0943603515625 -11.40999984741211 C 432.0943603515625 -9.609999656677246 431.8410339355469 -7.989999771118164 431.3343811035156 -6.550000190734863 C 430.8343811035156 -5.110000133514404 430.1143798828125 -3.880000114440918 429.17437744140625 -2.859999895095825 C 428.24102783203125 -1.840000033378601 427.1010437011719 -1.056666612625122 425.7543640136719 -0.5099999904632568 C 424.41436767578125 0.04333333298563957 422.9110412597656 0.3199999928474426 421.244384765625 0.3199999928474426 C 419.57769775390625 0.3199999928474426 418.0743713378906 0.04333333298563957 416.734375 -0.5099999904632568 C 415.3876953125 -1.056666612625122 414.244384765625 -1.840000033378601 413.30438232421875 -2.859999895095825 C 412.3576965332031 -3.880000114440918 411.6277160644531 -5.110000133514404 411.1143798828125 -6.550000190734863 C 410.6076965332031 -7.989999771118164 410.3543701171875 -9.609999656677246 410.3543701171875 -11.40999984741211 C 410.3543701171875 -13.1899995803833 410.6076965332031 -14.806666374206543 411.1143798828125 -16.260000228881836 C 411.6277160644531 -17.706666946411133 412.3576965332031 -18.940000534057617 413.30438232421875 -19.959999084472656 C 414.244384765625 -20.979999542236328 415.3876953125 -21.766666412353516 416.734375 -22.31999969482422 C 418.0743713378906 -22.873332977294922 419.57769775390625 -23.149999618530273 421.244384765625 -23.149999618530273 M 421.244384765625 -2.809999942779541 C 423.49102783203125 -2.809999942779541 425.1710510253906 -3.56333327293396 426.28436279296875 -5.070000171661377 C 427.39105224609375 -6.576666831970215 427.9443664550781 -8.680000305175781 427.9443664550781 -11.380000114440918 C 427.9443664550781 -14.100000381469727 427.39105224609375 -16.21666717529297 426.28436279296875 -17.729999542236328 C 425.1710510253906 -19.24333381652832 423.49102783203125 -20 421.244384765625 -20 C 420.1043701171875 -20 419.1143798828125 -19.80666732788086 418.2743835449219 -19.420000076293945 C 417.43438720703125 -19.02666664123535 416.734375 -18.463333129882812 416.17437744140625 -17.729999542236328 C 415.6076965332031 -16.996665954589844 415.1877136230469 -16.093334197998047 414.91436767578125 -15.020000457763672 C 414.6343688964844 -13.946666717529297 414.494384765625 -12.733333587646484 414.494384765625 -11.380000114440918 C 414.494384765625 -10.033333778381348 414.6343688964844 -8.826666831970215 414.91436767578125 -7.760000228881836 C 415.1877136230469 -6.699999809265137 415.6076965332031 -5.803333282470703 416.17437744140625 -5.070000171661377 C 416.734375 -4.3433332443237305 417.43438720703125 -3.7866666316986084 418.2743835449219 -3.4000000953674316 C 419.1143798828125 -3.006666660308838 420.1043701171875 -2.809999942779541 421.244384765625 -2.809999942779541 ZM 438.974365234375 -22.790000915527344 L 438.974365234375 1.690000057220459 C 438.974365234375 2.6033332347869873 438.8543701171875 3.4533333778381348 438.6143798828125 4.239999771118164 C 438.3743896484375 5.026666641235352 437.994384765625 5.7133331298828125 437.474365234375 6.300000190734863 C 436.9610290527344 6.886666774749756 436.29437255859375 7.3466668128967285 435.474365234375 7.679999828338623 C 434.6543884277344 8.020000457763672 433.67437744140625 8.1899995803833 432.53436279296875 8.1899995803833 C 432.0410461425781 8.1899995803833 431.5943603515625 8.15333366394043 431.1943664550781 8.079999923706055 C 430.7877197265625 8 430.38104248046875 7.886666774749756 429.974365234375 7.739999771118164 L 430.1543884277344 5.579999923706055 C 430.1877136230469 5.386666774749756 430.2543640136719 5.263333320617676 430.3543701171875 5.210000038146973 C 430.4610290527344 5.1566667556762695 430.6277160644531 5.130000114440918 430.8543701171875 5.130000114440918 C 430.974365234375 5.130000114440918 431.1010437011719 5.133333206176758 431.234375 5.139999866485596 C 431.3677062988281 5.146666526794434 431.5310363769531 5.150000095367432 431.724365234375 5.150000095367432 C 432.897705078125 5.150000095367432 433.7310485839844 4.87666654586792 434.224365234375 4.329999923706055 C 434.71771240234375 3.7833333015441895 434.9643859863281 2.9033334255218506 434.9643859863281 1.690000057220459 L 434.9643859863281 -22.790000915527344 L 438.974365234375 -22.790000915527344 M 439.8743896484375 -29.950000762939453 C 439.8743896484375 -29.55666732788086 439.79437255859375 -29.19333267211914 439.6343688964844 -28.860000610351562 C 439.4810485839844 -28.520000457763672 439.27105712890625 -28.219999313354492 439.0043640136719 -27.959999084472656 C 438.744384765625 -27.69333267211914 438.4410400390625 -27.486665725708008 438.0943603515625 -27.34000015258789 C 437.7477111816406 -27.18666648864746 437.38104248046875 -27.110000610351562 436.994384765625 -27.110000610351562 C 436.6010437011719 -27.110000610351562 436.2377014160156 -27.18666648864746 435.9043884277344 -27.34000015258789 C 435.5643615722656 -27.486665725708008 435.2643737792969 -27.69333267211914 435.0043640136719 -27.959999084472656 C 434.744384765625 -28.219999313354492 434.5377197265625 -28.520000457763672 434.3843688964844 -28.860000610351562 C 434.2310485839844 -29.19333267211914 434.1543884277344 -29.55666732788086 434.1543884277344 -29.950000762939453 C 434.1543884277344 -30.336666107177734 434.2310485839844 -30.706666946411133 434.3843688964844 -31.059999465942383 C 434.5377197265625 -31.413333892822266 434.744384765625 -31.719999313354492 435.0043640136719 -31.979999542236328 C 435.2643737792969 -32.246665954589844 435.5643615722656 -32.45333480834961 435.9043884277344 -32.599998474121094 C 436.2377014160156 -32.753334045410156 436.6010437011719 -32.83000183105469 436.994384765625 -32.83000183105469 C 437.38104248046875 -32.83000183105469 437.7477111816406 -32.753334045410156 438.0943603515625 -32.599998474121094 C 438.4410400390625 -32.45333480834961 438.744384765625 -32.246665954589844 439.0043640136719 -31.979999542236328 C 439.27105712890625 -31.719999313354492 439.4810485839844 -31.413333892822266 439.6343688964844 -31.059999465942383 C 439.79437255859375 -30.706666946411133 439.8743896484375 -30.336666107177734 439.8743896484375 -29.950000762939453 ZM 463.7543640136719 0 L 461.984375 0 C 461.5910339355469 0 461.2743835449219 -0.05999999865889549 461.03436279296875 -0.18000000715255737 C 460.79437255859375 -0.30000001192092896 460.6376953125 -0.5533333420753479 460.5643615722656 -0.9399999976158142 L 460.1143798828125 -3.059999942779541 C 459.5143737792969 -2.5199999809265137 458.9310302734375 -2.0366666316986084 458.3643798828125 -1.6100000143051147 C 457.7910461425781 -1.1833332777023315 457.1877136230469 -0.8233333230018616 456.55438232421875 -0.5299999713897705 C 455.9277038574219 -0.23666666448116302 455.2577209472656 -0.013333333656191826 454.54437255859375 0.14000000059604645 C 453.8310546875 0.2866666615009308 453.0410461425781 0.36000001430511475 452.17437744140625 0.36000001430511475 C 451.2877197265625 0.36000001430511475 450.45770263671875 0.23666666448116302 449.68438720703125 -0.009999999776482582 C 448.9110412597656 -0.2566666603088379 448.24102783203125 -0.6299999952316284 447.67437744140625 -1.1299999952316284 C 447.1010437011719 -1.6233333349227905 446.647705078125 -2.246666669845581 446.3143615722656 -3 C 445.974365234375 -3.759999990463257 445.80438232421875 -4.6566667556762695 445.80438232421875 -5.690000057220459 C 445.80438232421875 -6.590000152587891 446.0510559082031 -7.456666469573975 446.54437255859375 -8.289999961853027 C 447.0377197265625 -9.123332977294922 447.83770751953125 -9.863333702087402 448.9443664550781 -10.510000228881836 C 450.04437255859375 -11.149999618530273 451.4877014160156 -11.676666259765625 453.2743835449219 -12.09000015258789 C 455.06103515625 -12.50333309173584 457.244384765625 -12.739999771118164 459.8243713378906 -12.800000190734863 L 459.8243713378906 -14.579999923706055 C 459.8243713378906 -16.34666633605957 459.4443664550781 -17.68666648864746 458.68438720703125 -18.600000381469727 C 457.92437744140625 -19.50666618347168 456.80438232421875 -19.959999084472656 455.3243713378906 -19.959999084472656 C 454.3510437011719 -19.959999084472656 453.5277099609375 -19.836666107177734 452.8543701171875 -19.59000015258789 C 452.1877136230469 -19.336666107177734 451.6110534667969 -19.05666732788086 451.1243896484375 -18.75 C 450.6376953125 -18.44333267211914 450.21771240234375 -18.16666603088379 449.8643798828125 -17.920000076293945 C 449.51104736328125 -17.6733341217041 449.1610412597656 -17.549999237060547 448.8143615722656 -17.549999237060547 C 448.5476989746094 -17.549999237060547 448.3143615722656 -17.6200008392334 448.1143798828125 -17.760000228881836 C 447.90771484375 -17.906665802001953 447.744384765625 -18.08333396911621 447.6243896484375 -18.290000915527344 L 446.9043884277344 -19.56999969482422 C 448.16436767578125 -20.790000915527344 449.5243835449219 -21.700000762939453 450.984375 -22.299999237060547 C 452.4377136230469 -22.899999618530273 454.0476989746094 -23.200000762939453 455.8143615722656 -23.200000762939453 C 457.08770751953125 -23.200000762939453 458.2210388183594 -22.989999771118164 459.2143859863281 -22.56999969482422 C 460.2010498046875 -22.149999618530273 461.03436279296875 -21.56333351135254 461.7143859863281 -20.809999465942383 C 462.3876953125 -20.06333351135254 462.897705078125 -19.156665802001953 463.244384765625 -18.09000015258789 C 463.5843811035156 -17.023332595825195 463.7543640136719 -15.853333473205566 463.7543640136719 -14.579999923706055 L 463.7543640136719 0 M 453.3643798828125 -2.450000047683716 C 454.071044921875 -2.450000047683716 454.7143859863281 -2.5233333110809326 455.29437255859375 -2.6700000762939453 C 455.88104248046875 -2.809999942779541 456.43438720703125 -3.009999990463257 456.9543762207031 -3.2699999809265137 C 457.46771240234375 -3.5366666316986084 457.9610290527344 -3.8566665649414062 458.43438720703125 -4.230000019073486 C 458.90771484375 -4.603333473205566 459.37103271484375 -5.03000020980835 459.8243713378906 -5.510000228881836 L 459.8243713378906 -10.260000228881836 C 457.97772216796875 -10.199999809265137 456.40771484375 -10.053333282470703 455.1143798828125 -9.819999694824219 C 453.82769775390625 -9.58666706085205 452.7777099609375 -9.283333778381348 451.9643859863281 -8.90999984741211 C 451.15771484375 -8.536666870117188 450.571044921875 -8.09333324432373 450.2043762207031 -7.579999923706055 C 449.83770751953125 -7.073333263397217 449.6543884277344 -6.503333568572998 449.6543884277344 -5.869999885559082 C 449.6543884277344 -5.269999980926514 449.75103759765625 -4.753333568572998 449.9443664550781 -4.320000171661377 C 450.1376953125 -3.886666774749756 450.4010314941406 -3.5299999713897705 450.734375 -3.25 C 451.06103515625 -2.9700000286102295 451.4510498046875 -2.7666666507720947 451.9043884277344 -2.640000104904175 C 452.3510437011719 -2.513333320617676 452.83770751953125 -2.450000047683716 453.3643798828125 -2.450000047683716 ZM 498.7331237792969 -32.2400016784668 L 498.7331237792969 -28.690000534057617 L 483.25311279296875 -28.690000534057617 L 483.25311279296875 -17.40999984741211 L 496.4831237792969 -17.40999984741211 L 496.4831237792969 -13.859999656677246 L 483.25311279296875 -13.859999656677246 L 483.25311279296875 0 L 478.8731384277344 0 L 478.8731384277344 -32.2400016784668 L 498.7331237792969 -32.2400016784668 ZM 507.724365234375 -22.790000915527344 L 507.724365234375 0 L 503.7143859863281 0 L 503.7143859863281 -22.790000915527344 L 507.724365234375 -22.790000915527344 M 508.6243896484375 -29.950000762939453 C 508.6243896484375 -29.55666732788086 508.54437255859375 -29.19333267211914 508.3843688964844 -28.860000610351562 C 508.2310485839844 -28.520000457763672 508.02105712890625 -28.219999313354492 507.7543640136719 -27.959999084472656 C 507.494384765625 -27.69333267211914 507.1910400390625 -27.486665725708008 506.8443603515625 -27.34000015258789 C 506.4977111816406 -27.18666648864746 506.13104248046875 -27.110000610351562 505.744384765625 -27.110000610351562 C 505.3510437011719 -27.110000610351562 504.9877014160156 -27.18666648864746 504.6543884277344 -27.34000015258789 C 504.3143615722656 -27.486665725708008 504.0143737792969 -27.69333267211914 503.7543640136719 -27.959999084472656 C 503.494384765625 -28.219999313354492 503.2877197265625 -28.520000457763672 503.1343688964844 -28.860000610351562 C 502.9810485839844 -29.19333267211914 502.9043884277344 -29.55666732788086 502.9043884277344 -29.950000762939453 C 502.9043884277344 -30.336666107177734 502.9810485839844 -30.706666946411133 503.1343688964844 -31.059999465942383 C 503.2877197265625 -31.413333892822266 503.494384765625 -31.719999313354492 503.7543640136719 -31.979999542236328 C 504.0143737792969 -32.246665954589844 504.3143615722656 -32.45333480834961 504.6543884277344 -32.599998474121094 C 504.9877014160156 -32.753334045410156 505.3510437011719 -32.83000183105469 505.744384765625 -32.83000183105469 C 506.13104248046875 -32.83000183105469 506.4977111816406 -32.753334045410156 506.8443603515625 -32.599998474121094 C 507.1910400390625 -32.45333480834961 507.494384765625 -32.246665954589844 507.7543640136719 -31.979999542236328 C 508.02105712890625 -31.719999313354492 508.2310485839844 -31.413333892822266 508.3843688964844 -31.059999465942383 C 508.54437255859375 -30.706666946411133 508.6243896484375 -30.336666107177734 508.6243896484375 -29.950000762939453 ZM 515.764404296875 0 L 515.764404296875 -22.790000915527344 L 518.1543579101562 -22.790000915527344 C 518.7210693359375 -22.790000915527344 519.0810546875 -22.513334274291992 519.234375 -21.959999084472656 L 519.5443725585938 -19.479999542236328 C 520.5377197265625 -20.579999923706055 521.6443481445312 -21.46666717529297 522.8643798828125 -22.139999389648438 C 524.091064453125 -22.81333351135254 525.5076904296875 -23.149999618530273 527.1143798828125 -23.149999618530273 C 528.3543701171875 -23.149999618530273 529.4510498046875 -22.94333267211914 530.4043579101562 -22.530000686645508 C 531.3577270507812 -22.116666793823242 532.1543579101562 -21.53333282470703 532.7943725585938 -20.780000686645508 C 533.427734375 -20.020000457763672 533.9110107421875 -19.106666564941406 534.244384765625 -18.040000915527344 C 534.571044921875 -16.979999542236328 534.734375 -15.803333282470703 534.734375 -14.510000228881836 L 534.734375 0 L 530.734375 0 L 530.734375 -14.510000228881836 C 530.734375 -16.236665725708008 530.341064453125 -17.5766658782959 529.5543823242188 -18.530000686645508 C 528.7610473632812 -19.483333587646484 527.5577392578125 -19.959999084472656 525.9443969726562 -19.959999084472656 C 524.7576904296875 -19.959999084472656 523.6510620117188 -19.6733341217041 522.6243896484375 -19.100000381469727 C 521.591064453125 -18.53333282470703 520.6410522460938 -17.763334274291992 519.7743530273438 -16.790000915527344 L 519.7743530273438 0 L 515.764404296875 0 ZM 547.2943725585938 -23.149999618530273 C 548.6543579101562 -23.149999618530273 549.9143676757812 -22.9233341217041 551.0744018554688 -22.469999313354492 C 552.2277221679688 -22.010000228881836 553.224365234375 -21.350000381469727 554.0643920898438 -20.489999771118164 C 554.9043579101562 -19.623332977294922 555.56103515625 -18.55666732788086 556.0343627929688 -17.290000915527344 C 556.5076904296875 -16.023332595825195 556.744384765625 -14.579999923706055 556.744384765625 -12.960000038146973 C 556.744384765625 -12.326666831970215 556.6743774414062 -11.90666675567627 556.5343627929688 -11.699999809265137 C 556.4010620117188 -11.486666679382324 556.147705078125 -11.380000114440918 555.7743530273438 -11.380000114440918 L 540.6143798828125 -11.380000114440918 C 540.6410522460938 -9.9399995803833 540.8343505859375 -8.6899995803833 541.1943969726562 -7.630000114440918 C 541.5543823242188 -6.563333511352539 542.0477294921875 -5.673333168029785 542.6743774414062 -4.960000038146973 C 543.3077392578125 -4.246666431427002 544.06103515625 -3.7133333683013916 544.9343872070312 -3.359999895095825 C 545.801025390625 -3.006666660308838 546.7743530273438 -2.8299999237060547 547.8543701171875 -2.8299999237060547 C 548.8610229492188 -2.8299999237060547 549.7277221679688 -2.946666717529297 550.454345703125 -3.180000066757202 C 551.1810302734375 -3.4133334159851074 551.8077392578125 -3.6666667461395264 552.3343505859375 -3.940000057220459 C 552.8543701171875 -4.206666469573975 553.291015625 -4.456666469573975 553.6443481445312 -4.690000057220459 C 553.9976806640625 -4.923333168029785 554.301025390625 -5.039999961853027 554.5543823242188 -5.039999961853027 C 554.8876953125 -5.039999961853027 555.1443481445312 -4.913333415985107 555.3244018554688 -4.659999847412109 L 556.4443969726562 -3.190000057220459 C 555.9510498046875 -2.5899999141693115 555.3610229492188 -2.069999933242798 554.6743774414062 -1.6299999952316284 C 553.9810180664062 -1.190000057220459 553.2410278320312 -0.8266666531562805 552.454345703125 -0.5400000214576721 C 551.667724609375 -0.25333333015441895 550.8543701171875 -0.03999999910593033 550.014404296875 0.10000000149011612 C 549.1743774414062 0.24666666984558105 548.341064453125 0.3199999928474426 547.514404296875 0.3199999928474426 C 545.9410400390625 0.3199999928474426 544.4910278320312 0.0533333346247673 543.1643676757812 -0.47999998927116394 C 541.8377075195312 -1.0133333206176758 540.6910400390625 -1.7933332920074463 539.724365234375 -2.819999933242798 C 538.7510375976562 -3.8533332347869873 537.9976806640625 -5.12666654586792 537.46435546875 -6.639999866485596 C 536.9243774414062 -8.15333366394043 536.6543579101562 -9.893333435058594 536.6543579101562 -11.859999656677246 C 536.6543579101562 -13.446666717529297 536.897705078125 -14.930000305175781 537.3843994140625 -16.309999465942383 C 537.8710327148438 -17.690000534057617 538.571044921875 -18.886667251586914 539.484375 -19.899999618530273 C 540.397705078125 -20.913333892822266 541.514404296875 -21.709999084472656 542.8343505859375 -22.290000915527344 C 544.1543579101562 -22.863332748413086 545.6410522460938 -23.149999618530273 547.2943725585938 -23.149999618530273 M 547.3843994140625 -20.200000762939453 C 545.4443969726562 -20.200000762939453 543.9210205078125 -19.643333435058594 542.8143920898438 -18.530000686645508 C 541.7077026367188 -17.40999984741211 541.0177001953125 -15.859999656677246 540.744384765625 -13.880000114440918 L 553.1443481445312 -13.880000114440918 C 553.1443481445312 -14.813333511352539 553.014404296875 -15.666666984558105 552.75439453125 -16.440000534057617 C 552.5010375976562 -17.206666946411133 552.127685546875 -17.873332977294922 551.6343994140625 -18.440000534057617 C 551.1410522460938 -19 550.5377197265625 -19.433332443237305 549.8244018554688 -19.739999771118164 C 549.1110229492188 -20.046667098999023 548.2977294921875 -20.200000762939453 547.3843994140625 -20.200000762939453 ZM 562.693115234375 -33.13999938964844 L 562.693115234375 0 L 558.68310546875 0 L 558.68310546875 -33.13999938964844 L 562.693115234375 -33.13999938964844 ZM 579.7631225585938 -23.149999618530273 C 581.1231079101562 -23.149999618530273 582.3831176757812 -22.9233341217041 583.5431518554688 -22.469999313354492 C 584.6964721679688 -22.010000228881836 585.693115234375 -21.350000381469727 586.5331420898438 -20.489999771118164 C 587.3731079101562 -19.623332977294922 588.02978515625 -18.55666732788086 588.5031127929688 -17.290000915527344 C 588.9764404296875 -16.023332595825195 589.213134765625 -14.579999923706055 589.213134765625 -12.960000038146973 C 589.213134765625 -12.326666831970215 589.1431274414062 -11.90666675567627 589.0031127929688 -11.699999809265137 C 588.8698120117188 -11.486666679382324 588.616455078125 -11.380000114440918 588.2431030273438 -11.380000114440918 L 573.0831298828125 -11.380000114440918 C 573.1098022460938 -9.9399995803833 573.3031005859375 -8.6899995803833 573.6631469726562 -7.630000114440918 C 574.0231323242188 -6.563333511352539 574.5164794921875 -5.673333168029785 575.1431274414062 -4.960000038146973 C 575.7764892578125 -4.246666431427002 576.52978515625 -3.7133333683013916 577.4031372070312 -3.359999895095825 C 578.269775390625 -3.006666660308838 579.2431030273438 -2.8299999237060547 580.3231201171875 -2.8299999237060547 C 581.3297729492188 -2.8299999237060547 582.1964721679688 -2.946666717529297 582.923095703125 -3.180000066757202 C 583.6497802734375 -3.4133334159851074 584.2764892578125 -3.6666667461395264 584.8031005859375 -3.940000057220459 C 585.3231201171875 -4.206666469573975 585.759765625 -4.456666469573975 586.1130981445312 -4.690000057220459 C 586.4664306640625 -4.923333168029785 586.769775390625 -5.039999961853027 587.0231323242188 -5.039999961853027 C 587.3564453125 -5.039999961853027 587.6130981445312 -4.913333415985107 587.7931518554688 -4.659999847412109 L 588.9131469726562 -3.190000057220459 C 588.4197998046875 -2.5899999141693115 587.8297729492188 -2.069999933242798 587.1431274414062 -1.6299999952316284 C 586.4497680664062 -1.190000057220459 585.7097778320312 -0.8266666531562805 584.923095703125 -0.5400000214576721 C 584.136474609375 -0.25333333015441895 583.3231201171875 -0.03999999910593033 582.483154296875 0.10000000149011612 C 581.6431274414062 0.24666666984558105 580.809814453125 0.3199999928474426 579.983154296875 0.3199999928474426 C 578.4097900390625 0.3199999928474426 576.9597778320312 0.0533333346247673 575.6331176757812 -0.47999998927116394 C 574.3064575195312 -1.0133333206176758 573.1597900390625 -1.7933332920074463 572.193115234375 -2.819999933242798 C 571.2197875976562 -3.8533332347869873 570.4664306640625 -5.12666654586792 569.93310546875 -6.639999866485596 C 569.3931274414062 -8.15333366394043 569.1231079101562 -9.893333435058594 569.1231079101562 -11.859999656677246 C 569.1231079101562 -13.446666717529297 569.366455078125 -14.930000305175781 569.8531494140625 -16.309999465942383 C 570.3397827148438 -17.690000534057617 571.039794921875 -18.886667251586914 571.953125 -19.899999618530273 C 572.866455078125 -20.913333892822266 573.983154296875 -21.709999084472656 575.3031005859375 -22.290000915527344 C 576.6231079101562 -22.863332748413086 578.1098022460938 -23.149999618530273 579.7631225585938 -23.149999618530273 M 579.8531494140625 -20.200000762939453 C 577.9131469726562 -20.200000762939453 576.3897705078125 -19.643333435058594 575.2831420898438 -18.530000686645508 C 574.1764526367188 -17.40999984741211 573.4864501953125 -15.859999656677246 573.213134765625 -13.880000114440918 L 585.6130981445312 -13.880000114440918 C 585.6130981445312 -14.813333511352539 585.483154296875 -15.666666984558105 585.22314453125 -16.440000534057617 C 584.9697875976562 -17.206666946411133 584.596435546875 -17.873332977294922 584.1031494140625 -18.440000534057617 C 583.6098022460938 -19 583.0064697265625 -19.433332443237305 582.2931518554688 -19.739999771118164 C 581.5797729492188 -20.046667098999023 580.7664794921875 -20.200000762939453 579.8531494140625 -20.200000762939453 ZM 607.45751953125 0 L 605.6875 0 C 605.294189453125 0 604.9774780273438 -0.05999999865889549 604.7374877929688 -0.18000000715255737 C 604.4974975585938 -0.30000001192092896 604.3408203125 -0.5533333420753479 604.2675170898438 -0.9399999976158142 L 603.8175048828125 -3.059999942779541 C 603.217529296875 -2.5199999809265137 602.6341552734375 -2.0366666316986084 602.0675048828125 -1.6100000143051147 C 601.494140625 -1.1833332777023315 600.8908081054688 -0.8233333230018616 600.2575073242188 -0.5299999713897705 C 599.630859375 -0.23666666448116302 598.9608154296875 -0.013333333656191826 598.2474975585938 0.14000000059604645 C 597.5341796875 0.2866666615009308 596.744140625 0.36000001430511475 595.8775024414062 0.36000001430511475 C 594.9908447265625 0.36000001430511475 594.1608276367188 0.23666666448116302 593.3875122070312 -0.009999999776482582 C 592.6141967773438 -0.2566666603088379 591.9441528320312 -0.6299999952316284 591.3775024414062 -1.1299999952316284 C 590.8041381835938 -1.6233333349227905 590.350830078125 -2.246666669845581 590.0175170898438 -3 C 589.677490234375 -3.759999990463257 589.5075073242188 -4.6566667556762695 589.5075073242188 -5.690000057220459 C 589.5075073242188 -6.590000152587891 589.754150390625 -7.456666469573975 590.2474975585938 -8.289999961853027 C 590.7408447265625 -9.123332977294922 591.5408325195312 -9.863333702087402 592.6475219726562 -10.510000228881836 C 593.7474975585938 -11.149999618530273 595.1908569335938 -11.676666259765625 596.9774780273438 -12.09000015258789 C 598.76416015625 -12.50333309173584 600.947509765625 -12.739999771118164 603.5275268554688 -12.800000190734863 L 603.5275268554688 -14.579999923706055 C 603.5275268554688 -16.34666633605957 603.1475219726562 -17.68666648864746 602.3875122070312 -18.600000381469727 C 601.6275024414062 -19.50666618347168 600.5075073242188 -19.959999084472656 599.0275268554688 -19.959999084472656 C 598.0541381835938 -19.959999084472656 597.2308349609375 -19.836666107177734 596.5574951171875 -19.59000015258789 C 595.8908081054688 -19.336666107177734 595.3141479492188 -19.05666732788086 594.8275146484375 -18.75 C 594.3408203125 -18.44333267211914 593.9208374023438 -18.16666603088379 593.5675048828125 -17.920000076293945 C 593.2141723632812 -17.6733341217041 592.8641967773438 -17.549999237060547 592.5175170898438 -17.549999237060547 C 592.2508544921875 -17.549999237060547 592.0175170898438 -17.6200008392334 591.8175048828125 -17.760000228881836 C 591.61083984375 -17.906665802001953 591.447509765625 -18.08333396911621 591.3275146484375 -18.290000915527344 L 590.6074829101562 -19.56999969482422 C 591.8674926757812 -20.790000915527344 593.2274780273438 -21.700000762939453 594.6875 -22.299999237060547 C 596.1408081054688 -22.899999618530273 597.7508544921875 -23.200000762939453 599.5175170898438 -23.200000762939453 C 600.7908325195312 -23.200000762939453 601.9241943359375 -22.989999771118164 602.91748046875 -22.56999969482422 C 603.9041748046875 -22.149999618530273 604.7374877929688 -21.56333351135254 605.41748046875 -20.809999465942383 C 606.0908203125 -20.06333351135254 606.600830078125 -19.156665802001953 606.947509765625 -18.09000015258789 C 607.2874755859375 -17.023332595825195 607.45751953125 -15.853333473205566 607.45751953125 -14.579999923706055 L 607.45751953125 0 M 597.0675048828125 -2.450000047683716 C 597.774169921875 -2.450000047683716 598.41748046875 -2.5233333110809326 598.9974975585938 -2.6700000762939453 C 599.5841674804688 -2.809999942779541 600.1375122070312 -3.009999990463257 600.657470703125 -3.2699999809265137 C 601.1708374023438 -3.5366666316986084 601.6641845703125 -3.8566665649414062 602.1375122070312 -4.230000019073486 C 602.61083984375 -4.603333473205566 603.0741577148438 -5.03000020980835 603.5275268554688 -5.510000228881836 L 603.5275268554688 -10.260000228881836 C 601.6808471679688 -10.199999809265137 600.11083984375 -10.053333282470703 598.8175048828125 -9.819999694824219 C 597.5308227539062 -9.58666706085205 596.4808349609375 -9.283333778381348 595.66748046875 -8.90999984741211 C 594.86083984375 -8.536666870117188 594.274169921875 -8.09333324432373 593.907470703125 -7.579999923706055 C 593.5408325195312 -7.073333263397217 593.3574829101562 -6.503333568572998 593.3574829101562 -5.869999885559082 C 593.3574829101562 -5.269999980926514 593.4541625976562 -4.753333568572998 593.6475219726562 -4.320000171661377 C 593.8408203125 -3.886666774749756 594.1041870117188 -3.5299999713897705 594.4375 -3.25 C 594.76416015625 -2.9700000286102295 595.1541748046875 -2.7666666507720947 595.6074829101562 -2.640000104904175 C 596.0541381835938 -2.513333320617676 596.5408325195312 -2.450000047683716 597.0675048828125 -2.450000047683716 ZM 623.7462768554688 -19.040000915527344 C 623.5595703125 -18.706666946411133 623.2796020507812 -18.540000915527344 622.90625 -18.540000915527344 C 622.6795654296875 -18.540000915527344 622.42626953125 -18.623332977294922 622.146240234375 -18.790000915527344 C 621.8595581054688 -18.956666946411133 621.5095825195312 -19.139999389648438 621.0962524414062 -19.34000015258789 C 620.6829223632812 -19.540000915527344 620.1929321289062 -19.726667404174805 619.626220703125 -19.899999618530273 C 619.0529174804688 -20.073333740234375 618.376220703125 -20.15999984741211 617.5962524414062 -20.15999984741211 C 616.9229125976562 -20.15999984741211 616.3162231445312 -20.073333740234375 615.7762451171875 -19.899999618530273 C 615.2362670898438 -19.726667404174805 614.7762451171875 -19.489999771118164 614.396240234375 -19.190000534057617 C 614.0095825195312 -18.889999389648438 613.7162475585938 -18.543333053588867 613.5162353515625 -18.149999618530273 C 613.3095703125 -17.75 613.2062377929688 -17.316667556762695 613.2062377929688 -16.850000381469727 C 613.2062377929688 -16.263334274291992 613.376220703125 -15.776666641235352 613.7162475585938 -15.390000343322754 C 614.0562744140625 -14.99666690826416 614.5029296875 -14.65999984741211 615.0562744140625 -14.380000114440918 C 615.6095581054688 -14.09333324432373 616.2395629882812 -13.84000015258789 616.9462280273438 -13.619999885559082 C 617.6528930664062 -13.40666675567627 618.376220703125 -13.176666259765625 619.1162719726562 -12.930000305175781 C 619.8562622070312 -12.676666259765625 620.57958984375 -12.40333366394043 621.2862548828125 -12.109999656677246 C 621.992919921875 -11.803333282470703 622.6229248046875 -11.426666259765625 623.17626953125 -10.979999542236328 C 623.7362670898438 -10.526666641235352 624.1829223632812 -9.976666450500488 624.5162353515625 -9.329999923706055 C 624.8562622070312 -8.676666259765625 625.0262451171875 -7.889999866485596 625.0262451171875 -6.96999979019165 C 625.0262451171875 -5.923333168029785 624.8362426757812 -4.953333377838135 624.4562377929688 -4.059999942779541 C 624.0828857421875 -3.1666667461395264 623.5296020507812 -2.3933334350585938 622.7962646484375 -1.7400000095367432 C 622.0629272460938 -1.09333336353302 621.1629028320312 -0.5799999833106995 620.0962524414062 -0.20000000298023224 C 619.0296020507812 0.1733333319425583 617.799560546875 0.36000001430511475 616.40625 0.36000001430511475 C 614.8129272460938 0.36000001430511475 613.3729248046875 0.10000000149011612 612.0862426757812 -0.41999998688697815 C 610.799560546875 -0.9333333373069763 609.7062377929688 -1.596666693687439 608.8062744140625 -2.4100000858306885 L 609.7462768554688 -3.940000057220459 C 609.8662719726562 -4.133333206176758 610.0095825195312 -4.2833333015441895 610.17626953125 -4.389999866485596 C 610.3362426757812 -4.489999771118164 610.5529174804688 -4.539999961853027 610.8262329101562 -4.539999961853027 C 611.0928955078125 -4.539999961853027 611.376220703125 -4.436666488647461 611.67626953125 -4.230000019073486 C 611.9762573242188 -4.023333549499512 612.3428955078125 -3.7899999618530273 612.7762451171875 -3.5299999713897705 C 613.2029418945312 -3.2766666412353516 613.7196044921875 -3.0433332920074463 614.3262329101562 -2.8299999237060547 C 614.9329223632812 -2.623333215713501 615.6929321289062 -2.5199999809265137 616.6062622070312 -2.5199999809265137 C 617.38623046875 -2.5199999809265137 618.069580078125 -2.619999885559082 618.65625 -2.819999933242798 C 619.242919921875 -3.0266666412353516 619.7296142578125 -3.303333282470703 620.1162719726562 -3.6500000953674316 C 620.5095825195312 -3.990000009536743 620.799560546875 -4.386666774749756 620.9862670898438 -4.840000152587891 C 621.1729125976562 -5.2866668701171875 621.2662353515625 -5.766666889190674 621.2662353515625 -6.28000020980835 C 621.2662353515625 -6.9066667556762695 621.0962524414062 -7.426666736602783 620.7562255859375 -7.840000152587891 C 620.4229125976562 -8.25333309173584 619.9762573242188 -8.606666564941406 619.416259765625 -8.899999618530273 C 618.8629150390625 -9.193333625793457 618.2296142578125 -9.446666717529297 617.5162353515625 -9.65999984741211 C 616.8029174804688 -9.880000114440918 616.0762329101562 -10.109999656677246 615.3362426757812 -10.350000381469727 C 614.5962524414062 -10.59000015258789 613.8695678710938 -10.863333702087402 613.15625 -11.170000076293945 C 612.4429321289062 -11.476666450500488 611.8095703125 -11.863333702087402 611.2562255859375 -12.329999923706055 C 610.6962280273438 -12.796667098999023 610.2495727539062 -13.369999885559082 609.916259765625 -14.050000190734863 C 609.5762329101562 -14.729999542236328 609.40625 -15.5600004196167 609.40625 -16.540000915527344 C 609.40625 -17.406665802001953 609.5862426757812 -18.24333381652832 609.9462280273438 -19.049999237060547 C 610.3062744140625 -19.850000381469727 610.8329467773438 -20.553333282470703 611.5262451171875 -21.15999984741211 C 612.212890625 -21.766666412353516 613.0595703125 -22.25 614.0662231445312 -22.610000610351562 C 615.0729370117188 -22.969999313354492 616.2196044921875 -23.149999618530273 617.5062255859375 -23.149999618530273 C 619.0062255859375 -23.149999618530273 620.3529052734375 -22.913333892822266 621.5462646484375 -22.440000534057617 C 622.7395629882812 -21.96666717529297 623.7695922851562 -21.31999969482422 624.63623046875 -20.5 L 623.7462768554688 -19.040000915527344 ZM 637.2318725585938 -23.149999618530273 C 638.5918579101562 -23.149999618530273 639.8518676757812 -22.9233341217041 641.0119018554688 -22.469999313354492 C 642.1652221679688 -22.010000228881836 643.161865234375 -21.350000381469727 644.0018920898438 -20.489999771118164 C 644.8418579101562 -19.623332977294922 645.49853515625 -18.55666732788086 645.9718627929688 -17.290000915527344 C 646.4451904296875 -16.023332595825195 646.681884765625 -14.579999923706055 646.681884765625 -12.960000038146973 C 646.681884765625 -12.326666831970215 646.6118774414062 -11.90666675567627 646.4718627929688 -11.699999809265137 C 646.3385620117188 -11.486666679382324 646.085205078125 -11.380000114440918 645.7118530273438 -11.380000114440918 L 630.5518798828125 -11.380000114440918 C 630.5785522460938 -9.9399995803833 630.7718505859375 -8.6899995803833 631.1318969726562 -7.630000114440918 C 631.4918823242188 -6.563333511352539 631.9852294921875 -5.673333168029785 632.6118774414062 -4.960000038146973 C 633.2452392578125 -4.246666431427002 633.99853515625 -3.7133333683013916 634.8718872070312 -3.359999895095825 C 635.738525390625 -3.006666660308838 636.7118530273438 -2.8299999237060547 637.7918701171875 -2.8299999237060547 C 638.7985229492188 -2.8299999237060547 639.6652221679688 -2.946666717529297 640.391845703125 -3.180000066757202 C 641.1185302734375 -3.4133334159851074 641.7452392578125 -3.6666667461395264 642.2718505859375 -3.940000057220459 C 642.7918701171875 -4.206666469573975 643.228515625 -4.456666469573975 643.5818481445312 -4.690000057220459 C 643.9351806640625 -4.923333168029785 644.238525390625 -5.039999961853027 644.4918823242188 -5.039999961853027 C 644.8251953125 -5.039999961853027 645.0818481445312 -4.913333415985107 645.2619018554688 -4.659999847412109 L 646.3818969726562 -3.190000057220459 C 645.8885498046875 -2.5899999141693115 645.2985229492188 -2.069999933242798 644.6118774414062 -1.6299999952316284 C 643.9185180664062 -1.190000057220459 643.1785278320312 -0.8266666531562805 642.391845703125 -0.5400000214576721 C 641.605224609375 -0.25333333015441895 640.7918701171875 -0.03999999910593033 639.951904296875 0.10000000149011612 C 639.1118774414062 0.24666666984558105 638.278564453125 0.3199999928474426 637.451904296875 0.3199999928474426 C 635.8785400390625 0.3199999928474426 634.4285278320312 0.0533333346247673 633.1018676757812 -0.47999998927116394 C 631.7752075195312 -1.0133333206176758 630.6285400390625 -1.7933332920074463 629.661865234375 -2.819999933242798 C 628.6885375976562 -3.8533332347869873 627.9351806640625 -5.12666654586792 627.40185546875 -6.639999866485596 C 626.8618774414062 -8.15333366394043 626.5918579101562 -9.893333435058594 626.5918579101562 -11.859999656677246 C 626.5918579101562 -13.446666717529297 626.835205078125 -14.930000305175781 627.3218994140625 -16.309999465942383 C 627.8085327148438 -17.690000534057617 628.508544921875 -18.886667251586914 629.421875 -19.899999618530273 C 630.335205078125 -20.913333892822266 631.451904296875 -21.709999084472656 632.7718505859375 -22.290000915527344 C 634.0918579101562 -22.863332748413086 635.5785522460938 -23.149999618530273 637.2318725585938 -23.149999618530273 M 637.3218994140625 -20.200000762939453 C 635.3818969726562 -20.200000762939453 633.8585205078125 -19.643333435058594 632.7518920898438 -18.530000686645508 C 631.6452026367188 -17.40999984741211 630.9552001953125 -15.859999656677246 630.681884765625 -13.880000114440918 L 643.0818481445312 -13.880000114440918 C 643.0818481445312 -14.813333511352539 642.951904296875 -15.666666984558105 642.69189453125 -16.440000534057617 C 642.4385375976562 -17.206666946411133 642.065185546875 -17.873332977294922 641.5718994140625 -18.440000534057617 C 641.0785522460938 -19 640.4752197265625 -19.433332443237305 639.7619018554688 -19.739999771118164 C 639.0485229492188 -20.046667098999023 638.2352294921875 -20.200000762939453 637.3218994140625 -20.200000762939453 ZM 664.420654296875 -3.6700000762939453 L 678.37060546875 -3.6700000762939453 L 678.37060546875 0 L 660.0606079101562 0 L 660.0606079101562 -32.2400016784668 L 664.420654296875 -32.2400016784668 L 664.420654296875 -3.6700000762939453 ZM 693.8150024414062 0.36000001430511475 C 692.0150146484375 0.36000001430511475 690.6316528320312 -0.1433333307504654 689.6649780273438 -1.149999976158142 C 688.6983032226562 -2.1500000953674316 688.2150268554688 -3.5966665744781494 688.2150268554688 -5.489999771118164 L 688.2150268554688 -19.440000534057617 L 685.4650268554688 -19.440000534057617 C 685.2249755859375 -19.440000534057617 685.0250244140625 -19.510000228881836 684.864990234375 -19.649999618530273 C 684.6983032226562 -19.796667098999023 684.614990234375 -20.020000457763672 684.614990234375 -20.31999969482422 L 684.614990234375 -21.90999984741211 L 688.344970703125 -22.389999389648438 L 689.2750244140625 -29.43000030517578 C 689.3016967773438 -29.656665802001953 689.3983154296875 -29.84000015258789 689.5650024414062 -29.979999542236328 C 689.731689453125 -30.126667022705078 689.941650390625 -30.200000762939453 690.1950073242188 -30.200000762939453 L 692.2150268554688 -30.200000762939453 L 692.2150268554688 -22.34000015258789 L 698.7449951171875 -22.34000015258789 L 698.7449951171875 -19.440000534057617 L 692.2150268554688 -19.440000534057617 L 692.2150268554688 -5.760000228881836 C 692.2150268554688 -4.800000190734863 692.4483642578125 -4.086666584014893 692.9149780273438 -3.619999885559082 C 693.3816528320312 -3.1533334255218506 693.981689453125 -2.9200000762939453 694.7150268554688 -2.9200000762939453 C 695.135009765625 -2.9200000762939453 695.4983520507812 -2.9766666889190674 695.8049926757812 -3.0899999141693115 C 696.1116943359375 -3.2033333778381348 696.3783569335938 -3.3266665935516357 696.60498046875 -3.4600000381469727 C 696.8316650390625 -3.5999999046325684 697.0250244140625 -3.7266666889190674 697.1849975585938 -3.8399999141693115 C 697.3383178710938 -3.946666717529297 697.4749755859375 -4 697.594970703125 -4 C 697.808349609375 -4 697.9983520507812 -3.873333215713501 698.1649780273438 -3.619999885559082 L 699.3350219726562 -1.7100000381469727 C 698.6416625976562 -1.0633333921432495 697.808349609375 -0.5566666722297668 696.8350219726562 -0.1899999976158142 C 695.85498046875 0.17666666209697723 694.8483276367188 0.36000001430511475 693.8150024414062 0.36000001430511475 ZM 715.4550170898438 0 C 714.8816528320312 0 714.5216674804688 -0.27666667103767395 714.375 -0.8299999833106995 L 714.0150146484375 -3.5999999046325684 C 713.0416870117188 -2.4133334159851074 711.9283447265625 -1.4633333683013916 710.6749877929688 -0.75 C 709.4216918945312 -0.036666665226221085 707.9849853515625 0.3199999928474426 706.364990234375 0.3199999928474426 C 705.058349609375 0.3199999928474426 703.8716430664062 0.06666667014360428 702.8049926757812 -0.4399999976158142 C 701.7383422851562 -0.9399999976158142 700.8316650390625 -1.6766666173934937 700.0850219726562 -2.6500000953674316 C 699.3316650390625 -3.630000114440918 698.7550048828125 -4.8466668128967285 698.35498046875 -6.300000190734863 C 697.9483032226562 -7.753333568572998 697.7449951171875 -9.426666259765625 697.7449951171875 -11.319999694824219 C 697.7449951171875 -13 697.9683227539062 -14.563333511352539 698.4149780273438 -16.010000228881836 C 698.8683471679688 -17.456666946411133 699.518310546875 -18.713333129882812 700.364990234375 -19.780000686645508 C 701.211669921875 -20.84666633605957 702.2416381835938 -21.683332443237305 703.4550170898438 -22.290000915527344 C 704.6749877929688 -22.89666748046875 706.0549926757812 -23.200000762939453 707.594970703125 -23.200000762939453 C 708.9949951171875 -23.200000762939453 710.1883544921875 -22.963333129882812 711.1749877929688 -22.489999771118164 C 712.1683349609375 -22.016666412353516 713.0549926757812 -21.35333251953125 713.8350219726562 -20.5 L 713.8350219726562 -33.13999938964844 L 717.8350219726562 -33.13999938964844 L 717.8350219726562 0 L 715.4550170898438 0 M 707.6849975585938 -2.9200000762939453 C 708.9916381835938 -2.9200000762939453 710.1383056640625 -3.2200000286102295 711.125 -3.819999933242798 C 712.10498046875 -4.420000076293945 713.0083618164062 -5.269999980926514 713.8350219726562 -6.369999885559082 L 713.8350219726562 -17.389999389648438 C 713.1016845703125 -18.383333206176758 712.2949829101562 -19.0766658782959 711.4149780273438 -19.469999313354492 C 710.5349731445312 -19.8700008392334 709.5650024414062 -20.06999969482422 708.5050048828125 -20.06999969482422 C 706.3716430664062 -20.06999969482422 704.7349853515625 -19.31333351135254 703.594970703125 -17.799999237060547 C 702.4550170898438 -16.280000686645508 701.885009765625 -14.119999885559082 701.885009765625 -11.319999694824219 C 701.885009765625 -9.833333015441895 702.0116577148438 -8.5600004196167 702.2650146484375 -7.5 C 702.518310546875 -6.446666717529297 702.89501953125 -5.576666831970215 703.39501953125 -4.889999866485596 C 703.8883056640625 -4.210000038146973 704.4949951171875 -3.7133333683013916 705.2150268554688 -3.4000000953674316 C 705.9349975585938 -3.0799999237060547 706.7583618164062 -2.9200000762939453 707.6849975585938 -2.9200000762939453 Z" transform="matrix(1, 0, 0, -1, 579.7686157226562, 306.2392883300781)" style="font-variant: normal; fill: rgb(255, 255, 255); fill-opacity: 1; fill-rule: nonzero; stroke: none; white-space: pre;"/><g id="g36"><g id="g38" clip-path="url(#clipPath42)"><g id="g44" transform="translate(916.1006,531.6387)"><path d="M 0,0 H 30.784 L 20.423,30.862 c -0.672,1.96 -1.463,4.268 -2.361,6.924 -0.903,2.655 -1.795,5.531 -2.67,8.625 -0.825,-3.146 -1.677,-6.06 -2.552,-8.741 -0.875,-2.682 -1.7,-5.002 -2.473,-6.962 z M 72.402,-43.084 H 52.133 c -2.271,0 -4.139,0.527 -5.608,1.585 -1.467,1.057 -2.489,2.411 -3.054,4.061 L 36.819,-17.79 H -6.036 l -6.651,-19.648 c -0.514,-1.444 -1.519,-2.746 -3.015,-3.906 -1.497,-1.16 -3.326,-1.74 -5.494,-1.74 H -41.613 L 2.01,69.616 h 26.763 z" style="fill:#b02824;fill-opacity:1;fill-rule:nonzero;stroke:none" id="path46"/></g><g id="g48" transform="translate(1023.7754,555.6167)"><path d="m 0,0 h 4.173 c 3.868,0 6.651,1.211 8.356,3.636 l 25.369,36.82 c 1.395,2.01 2.982,3.377 4.76,4.099 1.779,0.721 3.958,1.083 6.533,1.083 H 71.935 L 38.52,0.078 c -1.186,-1.65 -2.428,-3.017 -3.716,-4.099 -1.287,-1.083 -2.603,-1.986 -3.941,-2.708 1.959,-0.723 3.749,-1.715 5.375,-2.978 1.62,-1.264 3.106,-2.952 4.444,-5.066 L 74.718,-67.062 H 51.359 c -1.496,0 -2.772,0.103 -3.828,0.309 -1.055,0.206 -1.976,0.515 -2.75,0.928 -0.767,0.412 -1.439,0.915 -2.01,1.508 -0.565,0.593 -1.107,1.276 -1.621,2.05 l -25.526,39.218 c -0.932,1.442 -2.101,2.462 -3.518,3.054 -1.422,0.593 -3.342,0.889 -5.765,0.889 H 0 v -47.956 h -26.147 v 112.7 l 26.147,0 z" style="fill:#b02824;fill-opacity:1;fill-rule:nonzero;stroke:none" id="path50"/></g><g id="g52" transform="translate(1140.5693,531.6387)"><path d="M 0,0 H 30.789 L 20.423,30.862 c -0.672,1.96 -1.457,4.268 -2.361,6.924 -0.903,2.655 -1.79,5.531 -2.665,8.625 -0.83,-3.146 -1.676,-6.06 -2.551,-8.741 -0.881,-2.682 -1.705,-5.002 -2.479,-6.962 z M 72.402,-43.084 H 52.139 c -2.271,0 -4.14,0.527 -5.608,1.585 -1.473,1.057 -2.49,2.411 -3.06,4.061 L 36.819,-17.79 H -6.03 l -6.652,-19.648 c -0.519,-1.444 -1.524,-2.746 -3.02,-3.906 -1.496,-1.16 -3.325,-1.74 -5.488,-1.74 h -20.423 l 43.629,112.7 h 26.763 z" style="fill:#b02824;fill-opacity:1;fill-rule:nonzero;stroke:none" id="path54"/></g><g id="g56" transform="translate(1284.9063,578.3589)"><path d="m 0,0 c -0.773,-1.238 -1.587,-2.166 -2.434,-2.785 -0.852,-0.618 -1.948,-0.927 -3.292,-0.927 -1.185,0 -2.462,0.372 -3.828,1.12 -1.366,0.747 -2.913,1.587 -4.641,2.514 -1.728,0.929 -3.699,1.766 -5.917,2.514 -2.219,0.747 -4.743,1.123 -7.577,1.123 -4.902,0 -8.549,-1.045 -10.949,-3.134 -2.394,-2.088 -3.596,-4.911 -3.596,-8.47 0,-2.269 0.722,-4.151 2.168,-5.646 1.439,-1.497 3.337,-2.785 5.685,-3.868 2.344,-1.083 5.026,-2.076 8.041,-2.978 3.021,-0.902 6.098,-1.909 9.248,-3.017 3.14,-1.109 6.223,-2.411 9.243,-3.905 3.016,-1.497 5.698,-3.404 8.04,-5.725 2.35,-2.32 4.242,-5.143 5.687,-8.471 1.445,-3.325 2.168,-7.336 2.168,-12.027 0,-5.209 -0.903,-10.082 -2.71,-14.618 -1.802,-4.539 -4.422,-8.497 -7.849,-11.875 -3.432,-3.378 -7.656,-6.033 -12.687,-7.967 -5.026,-1.934 -10.739,-2.9 -17.131,-2.9 -3.506,0 -7.08,0.361 -10.717,1.083 -3.636,0.722 -7.153,1.74 -10.558,3.055 -3.399,1.315 -6.601,2.874 -9.587,4.68 -2.994,1.804 -5.596,3.815 -7.815,6.033 l 7.736,12.221 c 0.564,0.928 1.366,1.676 2.399,2.243 1.027,0.567 2.14,0.852 3.326,0.852 1.547,0 3.106,-0.491 4.681,-1.47 1.569,-0.98 3.347,-2.063 5.335,-3.248 1.982,-1.188 4.263,-2.27 6.843,-3.249 2.581,-0.981 5.625,-1.47 9.13,-1.47 4.744,0 8.431,1.044 11.062,3.132 2.631,2.09 3.941,5.402 3.941,9.94 0,2.63 -0.723,4.769 -2.163,6.42 -1.445,1.651 -3.343,3.017 -5.685,4.1 -2.349,1.082 -5.014,2.037 -8.007,2.862 -2.992,0.824 -6.059,1.74 -9.203,2.746 -3.146,1.005 -6.217,2.243 -9.204,3.712 -2.993,1.47 -5.663,3.403 -8.006,5.802 -2.349,2.398 -4.246,5.388 -5.686,8.973 -1.446,3.583 -2.169,8.005 -2.169,13.265 0,4.227 0.853,8.355 2.553,12.377 1.705,4.021 4.206,7.605 7.504,10.752 3.297,3.145 7.351,5.658 12.144,7.542 4.794,1.881 10.289,2.823 16.477,2.823 3.455,0 6.82,-0.271 10.096,-0.814 3.274,-0.54 6.38,-1.341 9.316,-2.396 2.942,-1.059 5.686,-2.321 8.237,-3.79 2.553,-1.471 4.839,-3.134 6.85,-4.99 z" style="fill:#b02824;fill-opacity:1;fill-rule:nonzero;stroke:none" id="path58"/></g><g id="g60" transform="translate(1338.4326,531.6387)"><path d="M 0,0 H 30.784 L 20.423,30.862 c -0.672,1.96 -1.462,4.268 -2.361,6.924 -0.903,2.655 -1.794,5.531 -2.669,8.625 -0.825,-3.146 -1.678,-6.06 -2.553,-8.741 -0.875,-2.682 -1.699,-5.002 -2.473,-6.962 z m 72.403,-43.084 h -20.27 c -2.27,0 -4.139,0.527 -5.607,1.585 -1.468,1.057 -2.49,2.411 -3.054,4.061 L 36.82,-17.79 H -6.035 l -6.652,-19.648 c -0.513,-1.444 -1.519,-2.746 -3.015,-3.906 -1.496,-1.16 -3.325,-1.74 -5.493,-1.74 h -20.418 l 43.624,112.7 h 26.763 z" style="fill:#b02824;fill-opacity:1;fill-rule:nonzero;stroke:none" id="path62"/></g><g id="g64" transform="translate(921.7866,455.625)"><path d="m 0,0 v -7.095 h -30.891 v -22.492 h 26.402 v -7.095 h -26.402 v -27.655 h -8.752 V 0 Z" style="fill:#b02824;fill-opacity:1;fill-rule:nonzero;stroke:none" id="path66"/></g><path d="m 967.984,391.288 h -8.712 v 64.337 h 8.712 z" style="fill:#b02824;fill-opacity:1;fill-rule:nonzero;stroke:none" id="path68"/><g id="g70" transform="translate(1016.1367,455.333)"><path d="m 0,0 c 0.372,-0.195 0.796,-0.592 1.275,-1.19 l 37.266,-48.488 c -0.09,0.778 -0.152,1.533 -0.181,2.267 -0.028,0.733 -0.045,1.444 -0.045,2.133 v 45.57 h 7.634 v -64.337 h -4.398 c -0.689,0 -1.265,0.119 -1.734,0.358 -0.463,0.241 -0.92,0.644 -1.366,1.213 L 1.23,-14.03 c 0.063,-0.749 0.108,-1.482 0.136,-2.2 0.029,-0.719 0.045,-1.376 0.045,-1.975 v -45.84 H -6.223 V 0.292 h 4.49 C -0.955,0.292 -0.379,0.194 0,0" style="fill:#b02824;fill-opacity:1;fill-rule:nonzero;stroke:none" id="path72"/></g><g id="g74" transform="translate(1113.2695,415.1738)"><path d="M 0,0 H 24.02 L 13.918,26.173 c -0.66,1.616 -1.304,3.638 -1.931,6.061 C 11.654,31.006 11.332,29.877 11.021,28.846 10.705,27.812 10.4,26.907 10.102,26.129 Z M 42.155,-23.886 H 35.42 c -0.779,0 -1.406,0.196 -1.887,0.583 -0.473,0.39 -0.835,0.884 -1.072,1.483 l -6.02,15.534 H -2.428 L -8.441,-21.82 c -0.209,-0.539 -0.571,-1.018 -1.079,-1.438 -0.507,-0.419 -1.14,-0.628 -1.885,-0.628 h -6.737 L 7.583,40.451 h 8.848 z" style="fill:#b02824;fill-opacity:1;fill-rule:nonzero;stroke:none" id="path76"/></g><g id="g78" transform="translate(1194.4639,455.333)"><path d="m 0,0 c 0.372,-0.195 0.796,-0.592 1.275,-1.19 l 37.266,-48.488 c -0.09,0.778 -0.152,1.533 -0.181,2.267 -0.028,0.733 -0.045,1.444 -0.045,2.133 v 45.57 h 7.634 v -64.337 h -4.398 c -0.689,0 -1.265,0.119 -1.734,0.358 -0.463,0.241 -0.92,0.644 -1.366,1.213 L 1.23,-14.03 c 0.063,-0.749 0.108,-1.482 0.136,-2.2 0.029,-0.719 0.045,-1.376 0.045,-1.975 v -45.84 H -6.223 V 0.292 h 4.49 C -0.954,0.292 -0.379,0.194 0,0" style="fill:#b02824;fill-opacity:1;fill-rule:nonzero;stroke:none" id="path80"/></g><g id="g82" transform="translate(1326.1641,404.5771)"><path d="M 0,0 C 0.474,0 0.908,-0.195 1.298,-0.583 L 4.714,-4.31 c -2.637,-3.053 -5.832,-5.431 -9.587,-7.138 -3.755,-1.707 -8.283,-2.56 -13.579,-2.56 -4.642,0 -8.849,0.801 -12.62,2.404 -3.772,1.6 -6.985,3.844 -9.65,6.734 -2.665,2.888 -4.731,6.351 -6.199,10.393 -1.463,4.04 -2.196,8.485 -2.196,13.333 0,4.85 0.784,9.294 2.354,13.334 1.575,4.042 3.778,7.513 6.623,10.416 2.846,2.905 6.25,5.156 10.214,6.758 3.964,1.601 8.345,2.401 13.133,2.401 4.727,0 8.809,-0.733 12.236,-2.2 3.427,-1.466 6.471,-3.457 9.136,-5.97 L 1.75,39.599 C 1.541,39.3 1.298,39.053 1.033,38.857 0.762,38.663 0.372,38.566 -0.136,38.566 c -0.389,0 -0.801,0.142 -1.236,0.427 -0.436,0.283 -0.949,0.635 -1.548,1.055 -0.599,0.419 -1.304,0.868 -2.111,1.347 -0.808,0.478 -1.768,0.926 -2.874,1.347 -1.107,0.418 -2.394,0.77 -3.863,1.055 -1.461,0.283 -3.156,0.426 -5.07,0.426 -3.444,0 -6.595,-0.591 -9.452,-1.773 -2.856,-1.183 -5.318,-2.867 -7.385,-5.051 -2.066,-2.185 -3.676,-4.848 -4.828,-7.992 -1.151,-3.142 -1.727,-6.66 -1.727,-10.551 0,-4.011 0.576,-7.586 1.727,-10.73 1.152,-3.142 2.728,-5.799 4.715,-7.968 1.993,-2.172 4.348,-3.824 7.075,-4.962 2.722,-1.137 5.657,-1.705 8.797,-1.705 1.914,0 3.636,0.112 5.166,0.336 1.524,0.224 2.937,0.575 4.24,1.056 1.305,0.478 2.513,1.084 3.637,1.818 1.123,0.733 2.253,1.608 3.388,2.625 C -0.978,-0.225 -0.48,0 0,0" style="fill:#b02824;fill-opacity:1;fill-rule:nonzero;stroke:none" id="path84"/></g><g id="g86" transform="translate(1406.6631,455.625)"><path d="m 0,0 v -7.095 h -30.891 v -21.37 h 25.007 v -6.824 H -30.891 V -57.243 H 0 v -7.094 H -39.643 V 0 Z" style="fill:#b02824;fill-opacity:1;fill-rule:nonzero;stroke:none" id="path88"/></g></g></g></g></g></svg>
