<svg width="194" height="66" viewBox="0 0 194 66" fill="none" xmlns="http://www.w3.org/2000/svg">
<mask id="mask0_181_1883" style="mask-type:luminance" maskUnits="userSpaceOnUse" x="0" y="0" width="194" height="66">
<path d="M194 0H0V65.4885H194V0Z" fill="white"/>
</mask>
<g mask="url(#mask0_181_1883)">
<path d="M21.6713 0.034668C22.3903 0.353211 23.0847 0.636752 23.7617 0.965797C26.4904 2.28898 29.1069 3.79768 31.5621 5.57942C32.8248 6.49655 34.0244 7.48369 35.1221 8.57934C36.6618 10.1195 38.0158 11.8138 38.8926 13.837C39.2012 14.5477 39.2643 15.3073 39.2292 16.0564C39.1101 18.7448 38.0122 21.0235 36.213 22.9874C34.2348 25.1401 31.7972 26.6243 29.1596 27.8285C26.9464 28.8366 24.6385 29.5647 22.2957 30.2053C20.6717 30.6498 19.2161 31.427 18.1394 32.7641C17.1327 34.0173 17.1398 35.393 17.8237 36.7827C18.6198 38.3929 19.9281 39.5585 21.317 40.6368C23.0778 42.0054 24.9717 43.1781 26.8272 44.4068C29.184 45.9714 31.5937 47.4556 34.0173 48.9153C37.8474 51.2187 41.737 53.4134 45.6794 55.5208C48.3099 56.9279 50.9615 58.3001 53.6446 59.6057C57.373 61.4191 61.1399 63.1553 64.956 64.783C65.1594 64.8706 65.5453 64.9161 65.4471 65.1856C65.3453 65.4727 64.9805 65.3431 64.7421 65.2591C63.5531 64.839 62.364 64.4155 61.1855 63.9674C56.3384 62.1192 51.5823 60.0609 46.8894 57.8591C42.3194 55.7133 37.8509 53.3819 33.4527 50.9106C29.6015 48.7474 25.8485 46.4335 22.1833 43.9797C18.2481 41.3438 14.446 38.5294 10.7984 35.505C8.55714 33.6462 6.40361 31.6895 4.28515 29.6907C3.13121 28.602 2.07549 27.4259 0.949615 26.3197C0.388432 25.7702 0.170973 25.0211 0.0552291 24.2754C-0.211333 22.5462 0.493654 21.1741 2.02639 20.3165C2.0369 20.3094 2.05094 20.3059 2.06146 20.2954C2.9383 19.6724 3.89583 19.6793 4.90946 19.8544C7.08053 20.2254 9.23057 20.6875 11.3595 21.251C13.8393 21.9091 16.3717 21.9827 18.9144 21.7796C21.5134 21.5696 23.8353 20.6176 25.9258 19.0912C27.5778 17.8836 28.6721 16.2943 28.9491 14.2431C29.1911 12.4649 28.8088 10.7706 28.1108 9.13591C27.0517 6.66458 25.4768 4.53278 23.7477 2.50251C23.1198 1.76741 22.4815 1.04281 21.7871 0.370716C21.7238 0.300706 21.6327 0.241197 21.6713 0.034668Z" fill="#EE7C33"/>
<path d="M50.2533 31.9173C50.2533 26.7576 50.2533 21.5978 50.2533 16.4347C50.2533 15.8116 50.2533 15.8116 50.8881 15.8116C55.1497 15.8116 59.4146 15.7871 63.676 15.8186C66.1067 15.8361 68.4882 16.1546 70.6734 17.3343C73.5143 18.8674 75.1734 21.2339 75.5977 24.4193C75.8677 26.4425 75.7344 28.4413 74.8366 30.3245C73.7878 32.5159 72.0763 33.9896 69.8351 34.8752C69.4071 35.0468 68.9652 35.1901 68.5197 35.3128C68.1726 35.4072 68.0953 35.5263 68.3024 35.8589C70.6874 39.7304 73.0619 43.6089 75.4364 47.4873C75.5416 47.6589 75.7766 47.8444 75.6644 48.0334C75.5556 48.219 75.275 48.1141 75.0716 48.1141C72.5602 48.121 70.0526 48.1105 67.5412 48.1245C67.173 48.1281 66.959 48.0125 66.7731 47.6904C64.595 43.9239 62.3993 40.1679 60.2247 36.3979C60.0283 36.0584 59.811 35.9044 59.4251 35.9429C59.162 35.9673 58.892 35.9604 58.6254 35.9429C58.3028 35.9218 58.1624 36.0408 58.1799 36.3768C58.1975 36.7689 58.1835 37.1609 58.1835 37.553C58.1835 40.882 58.1835 44.211 58.1835 47.5364C58.1835 48.1141 58.1799 48.1174 57.5942 48.1174C55.3495 48.1174 53.1082 48.1174 50.8636 48.1174C50.2533 48.1174 50.2498 48.1141 50.2498 47.5153C50.2533 42.3242 50.2533 37.1225 50.2533 31.9173ZM58.1906 26.4636C58.1906 27.6781 58.201 28.8963 58.1835 30.111C58.1799 30.4576 58.2992 30.5765 58.6465 30.5731C60.288 30.5591 61.9258 30.5767 63.5673 30.5591C64.1846 30.552 64.7949 30.4471 65.3771 30.2301C65.9348 30.0201 66.4469 29.7364 66.8117 29.2429C67.7727 27.9512 67.7552 26.5125 67.4079 25.0388C67.2712 24.4578 66.9379 23.9712 66.4995 23.5546C65.5946 22.69 64.4547 22.4834 63.2762 22.4554C61.7505 22.4205 60.2214 22.4554 58.6921 22.4379C58.3132 22.4345 58.173 22.5465 58.1799 22.9385C58.201 24.1147 58.1906 25.2909 58.1906 26.4636Z" fill="#EE7C33"/>
<path d="M175.965 27.0127C176.376 26.3266 176.804 25.6791 177.355 25.119C178.968 23.4772 180.935 22.6267 183.215 22.4166C185.066 22.2486 186.858 22.4412 188.557 23.2113C190.809 24.2333 192.289 25.9766 193.164 28.2519C193.723 29.7011 193.989 31.2133 193.989 32.7641C193.997 37.6997 193.989 42.6354 194 47.5746C194 47.9841 193.89 48.1381 193.456 48.1345C191.17 48.1172 188.887 48.1172 186.599 48.1345C186.171 48.1381 186.048 47.9981 186.052 47.5815C186.066 43.164 186.066 38.7428 186.056 34.3252C186.052 33.3835 185.936 32.4559 185.548 31.5809C184.971 30.2892 184.007 29.4351 182.64 29.0536C181.578 28.7559 180.5 28.7559 179.444 29.057C177.367 29.6486 176.34 31.1293 175.986 33.17C175.891 33.7266 175.894 34.2832 175.894 34.8433C175.894 39.0543 175.894 43.262 175.894 47.4731C175.894 48.1276 175.894 48.1276 175.249 48.1276C172.99 48.1276 170.736 48.1276 168.477 48.1276C167.919 48.1276 167.906 48.1136 167.906 47.5675C167.906 39.4429 167.906 31.3183 167.906 23.1937C167.906 22.6512 167.94 22.6127 168.469 22.6127C170.757 22.6092 173.04 22.6092 175.326 22.6127C175.859 22.6127 175.894 22.6512 175.894 23.1902C175.898 24.3244 175.894 25.4551 175.898 26.5892C175.894 26.7187 175.846 26.8622 175.965 27.0127Z" fill="#EE7C33"/>
<path d="M95.0738 36.8037C92.282 36.8037 89.4935 36.8037 86.7017 36.8037C86.1195 36.8037 86.0704 36.8493 86.13 37.4269C86.2071 38.1515 86.358 38.862 86.635 39.5412C87.1401 40.7803 88.073 41.582 89.3464 41.9179C91.2228 42.4116 92.994 42.261 94.4425 40.7732C94.8178 40.3848 95.102 39.9367 95.2668 39.4221C95.3579 39.1351 95.5333 39.0442 95.8279 39.0442C98.3253 39.0511 100.819 39.0475 103.316 39.0511C103.786 39.0511 103.821 39.0966 103.702 39.5761C102.909 42.7862 101.043 45.212 98.1464 46.7591C93.9304 49.0134 89.5532 49.08 85.2181 47.1688C81.6862 45.6144 79.6098 42.7476 78.726 39.0406C78.1016 36.4293 78.1332 33.7969 78.8522 31.1995C79.9535 27.2195 82.4437 24.4576 86.3684 23.1345C90.1951 21.8463 94.0322 21.9407 97.7114 23.6944C101.352 25.4272 103.362 28.4236 104.042 32.3442C104.27 33.6604 104.298 34.9836 104.091 36.3102C104.032 36.6953 103.874 36.8143 103.492 36.8108C100.682 36.7968 97.8762 36.8037 95.0738 36.8037ZM91.163 33.5029C92.5239 33.5029 93.8813 33.5029 95.2422 33.5029C96.1787 33.5029 96.1963 33.5029 96.1156 32.5787C96.0103 31.378 95.5614 30.3384 94.5758 29.5754C93.5762 28.8053 92.4397 28.5322 91.1912 28.5496C88.4028 28.5916 86.5228 30.2755 86.1862 33.0408C86.1371 33.4503 86.2704 33.5098 86.6246 33.5063C88.1362 33.4958 89.6479 33.5029 91.163 33.5029Z" fill="#EE7C33"/>
<path d="M120.292 40.2622C120.608 39.2681 120.924 38.2705 121.239 37.2763C122.355 33.7269 123.466 30.1773 124.578 26.6279C124.95 25.4412 125.332 24.2545 125.687 23.061C125.788 22.7179 125.964 22.5988 126.318 22.6024C128.801 22.6128 131.281 22.6058 133.764 22.6093C134.273 22.6093 134.294 22.6548 134.118 23.1483C131.418 30.6639 128.714 38.1795 126.013 45.6915C125.771 46.3636 125.515 47.0286 125.29 47.7043C125.192 47.9982 125.045 48.1313 124.719 48.1278C121.702 48.1173 118.689 48.1173 115.673 48.1278C115.365 48.1278 115.231 47.9982 115.133 47.7253C113.698 43.7243 112.257 39.7232 110.819 35.7221C109.307 31.5251 107.795 27.328 106.284 23.1309C106.108 22.6479 106.133 22.6093 106.652 22.6093C109.135 22.6058 111.615 22.6128 114.098 22.6024C114.449 22.6024 114.617 22.7213 114.726 23.061C116.024 27.1669 117.336 31.2695 118.644 35.3755C119.124 36.8808 119.601 38.3894 120.078 39.8947C120.117 40.0136 120.163 40.1291 120.205 40.2482C120.233 40.2518 120.261 40.2587 120.292 40.2622Z" fill="#EE7C33"/>
<path d="M138.517 38.6516C138.517 35.7006 138.517 32.7498 138.517 29.7988C138.517 29.2458 138.513 29.2458 137.952 29.2422C137.251 29.2422 136.549 29.2318 135.848 29.2458C135.521 29.2528 135.402 29.1302 135.406 28.8047C135.416 26.8899 135.416 24.9716 135.406 23.0569C135.402 22.6998 135.553 22.5949 135.883 22.6018C136.528 22.6158 137.173 22.6054 137.819 22.6054C138.517 22.6054 138.517 22.6054 138.524 21.9263C138.538 20.4421 138.797 19.0033 139.425 17.6487C140.579 15.1494 142.599 13.6932 145.202 12.9721C146.935 12.4925 148.709 12.398 150.494 12.461C151.136 12.482 151.154 12.524 151.154 13.1471C151.154 15.0058 151.147 16.8681 151.161 18.7269C151.164 19.1224 151.042 19.2764 150.631 19.2555C149.846 19.2168 149.063 19.2204 148.309 19.5074C147.247 19.9136 146.377 21.2647 146.482 22.3674C146.51 22.6474 146.721 22.6018 146.892 22.6018C148.071 22.6054 149.249 22.6054 150.424 22.6054C151.154 22.6054 151.157 22.6054 151.157 23.3159C151.157 25.0627 151.157 26.8129 151.157 28.5597C151.157 29.2422 151.157 29.2422 150.456 29.2422C149.334 29.2422 148.211 29.2422 147.092 29.2422C146.464 29.2422 146.461 29.2422 146.461 29.8619C146.461 35.6657 146.461 41.4694 146.461 47.2697C146.461 47.3957 146.45 47.5217 146.461 47.6479C146.5 48.0154 146.335 48.1309 145.973 48.1309C143.659 48.1204 141.347 48.1169 139.032 48.1344C138.611 48.1378 138.517 47.9698 138.517 47.5883C138.52 44.6093 138.517 41.6305 138.517 38.6516Z" fill="#EE7C33"/>
<path d="M154.524 35.4003C154.524 31.3748 154.524 27.3457 154.524 23.3202C154.524 22.6096 154.524 22.6096 155.215 22.6096C157.446 22.6096 159.673 22.6096 161.904 22.6096C162.493 22.6096 162.517 22.6376 162.517 23.2257C162.517 31.3223 162.517 39.4189 162.517 47.5155C162.517 48.1245 162.514 48.1281 161.914 48.1281C159.67 48.1281 157.428 48.1281 155.184 48.1281C154.528 48.1281 154.528 48.1281 154.528 47.484C154.524 43.4549 154.524 39.4294 154.524 35.4003Z" fill="#EE7C33"/>
<path d="M153.823 15.4509C153.84 13.7076 154.717 12.4965 156.267 11.8209C157.856 11.1278 159.501 11.1628 161.073 11.9294C162.645 12.696 163.43 14.1977 163.272 15.9689C163.139 17.4532 161.97 18.8394 160.406 19.312C158.933 19.753 157.467 19.7319 156.064 19.0529C154.601 18.3457 153.826 17.0681 153.823 15.4509Z" fill="#EE7C33"/>
</g>
</svg>
